<svg clip-rule="evenodd" fill-rule="evenodd" height="368.173974" image-rendering="optimizeQuality" shape-rendering="geometricPrecision" text-rendering="geometricPrecision" viewBox="0 0 1277 1731" width="271.610725" xmlns="http://www.w3.org/2000/svg"><path d="m587.5 1.5c179.65-3.80467 357.316 13.0287 533 50.5 51.26 11.3665 101.6 25.8665 151 43.5.17 395 0 790-.5 1185-3.05 65.21-27.05 121.21-72 168-24.6 24.28-51.77 45.11-81.5 62.5-41.59 23.2-84.93 42.53-130 58-23.815 8.27-47.815 15.94-72 23-55.514 15.38-110.847 31.38-166 48-17.798 6.49-34.131 15.49-49 27-20.85 19.68-41.85 39.18-63 58.5-21.85-20.35-43.85-40.52-66-60.5-10.006-7.34-20.673-13.67-32-19-17.317-6.99-34.984-12.99-53-18-47.058-13.13-94.058-26.46-141-40-58.423-16.71-114.756-38.71-169-66-41.315-20.97-77.8152-48.47-109.5-82.5-36.8035-41.63-57.80346-90.3-63-146-.83333-399.334-.66667-798.667.5-1198 88.1856-30.7963 178.519-52.9629 271-66.5 103.572-15.7969 207.572-24.96358 312-27.5z" fill="#480024" opacity=".993"/><path d="m568.5 40.5c170.555-4.8107 339.555 9.0227 507 41.5 53.51 10.7117 106.18 24.545 158 41.5.17 385.667 0 771.333-.5 1157-3.16 54.63-23.49 101.63-61 141-36.97 35.42-79.14 63.26-126.5 83.5-46.898 19.97-94.898 36.97-144 51-48.378 13.51-96.711 27.18-145 41-26.673 7.66-51.34 19.32-74 35-15.448 12.94-30.448 26.44-45 40.5-15.436-14.87-31.436-29.04-48-42.5-13.57-8.95-27.904-16.62-43-23-17.532-6.07-35.199-11.73-53-17-67.984-17.83-135.317-37.83-202-60-45.639-15.54-88.972-35.87-130-61-43.52-26.52-77.0201-62.35-100.5-107.5-11.3573-24.76-17.6907-50.76-19-78-.8333-386.667-.6667-773.334.5-1160 57.6-19.234 116.267-34.4002 176-45.5 115.856-21.418 232.523-33.918 350-37.5z" fill="#eee" opacity=".999"/><path d="m570.5 65.5c140.783-3.2579 280.783 5.5754 420 26.5 73.54 11.303 145.88 27.803 217 49.5 1.17 379.333 1.33 758.666.5 1138-3.32 54.81-25.49 100.31-66.5 136.5-34.01 28.62-71.68 51.62-113 69-42.719 17.91-86.386 33.24-131 46-49.423 13.69-98.756 27.69-148 42-43.385 11.85-80.718 33.68-112 65.5-15.086-15.26-31.752-28.43-50-39.5-25.352-13.67-52.019-24.01-80-31-47.045-13.18-94.045-26.51-141-40-54.45-15.81-107.116-36.15-158-61-34.777-17.43-65.61-40.27-92.5-68.5-30.3628-33.72-46.6961-73.39-49-119-.8333-379.334-.6667-758.667.5-1138 75.296-23.157 151.963-40.323 230-51.5 90.675-13.5275 181.675-21.6942 273-24.5z" fill="#490125"/><path d="m1181.5 159.5c1 371.264 1.33 742.597 1 1114-.75 41.42-14.91 77.42-42.5 108-31.22 31.86-67.39 56.7-108.5 74.5-37.415 16.7-75.749 31.03-115 43-50.199 14.8-100.532 29.13-151 43-32.996 8.22-64.329 20.55-94 37-11.805 7.32-22.972 15.48-33.5 24.5-24.216-19.7-51.049-35.2-80.5-46.5-70.274-20.87-140.607-41.54-211-62-54.817-16.48-106.817-39.15-156-68-26.969-16.97-50.136-38.13-69.5-63.5-16.246-23.06-25.5795-48.73-28-77-.5-375.667-.6667-751.333-.5-1127 136.319-36.403 274.985-58.237 416-65.5 186.194-10.2829 370.86 2.0505 554 37 40.02 8.09 79.69 17.59 119 28.5z" fill="#93bde4"/><path d="m763.5 198.5c6.263 4.758 12.096 10.091 17.5 16 11.093 13.763 22.926 26.93 35.5 39.5 7.712 6.855 16.712 11.021 27 12.5-6.511 10.924-16.178 16.091-29 15.5 5.35 5.695 9.516 12.195 12.5 19.5 6.027 18.11 12.361 36.11 19 54 3.658 6.589 9.158 10.923 16.5 13-2.592 3.043-5.925 4.876-10 5.5-6.333.667-12.667.667-19 0-3.005-1.354-6.005-2.354-9-3 3.917 6.088 5.584 12.755 5 20-.167 3.167-.333 6.333-.5 9.5-8.907 21.197-4.074 38.197 14.5 51-.881 1.471-2.214 2.304-4 2.5-13.78 1.961-25.946-1.539-36.5-10.5 1.912 3.823 3.912 7.823 6 12 2.257 5.787 3.424 11.787 3.5 18-1.684 14.403-3.85 28.736-6.5 43-2.737 15.293 1.763 27.959 13.5 38-15.631 4.891-29.797 1.891-42.5-9 .552 4.923.552 9.923 0 15-3.158 13.632-6.158 27.298-9 41-1.99 26.706 3.01 52.04 15 76 12.542 23.08 22.875 47.08 31 72 1.822 7.608 3.322 15.274 4.5 23 14.235 6.251 28.235 12.917 42 20 18.255 10.916 38.088 16.916 59.5 18 34.726-1.392 52.892-19.559 54.5-54.5-.794-16.384-5.961-31.217-15.5-44.5-15.517-20.192-32.517-39.192-51-57-15.978-16.64-29.644-34.973-41-55-3.493-7.307-6.66-14.64-9.5-22-7.037-22.839-7.703-45.839-2-69 4.424-12.181 10.424-23.514 18-34 2.667-2 5-4.333 7-7 4.353-4.352 9.019-8.352 14-12 .832-10.651 1.332-21.318 1.5-32 2.651-17.142 10.818-30.975 24.5-41.5 10.667-6.333 21.333-12.667 32-19 8.207-6.577 13.207-15.077 15-25.5 3.411 5.829 4.745 12.162 4 19 .255 6.591-.578 12.924-2.5 19 3.534-3.869 7.367-7.369 11.5-10.5 11.666-7.835 23.67-15.169 36-22 10.14-8.462 17.14-18.962 21-31.5 2.38 5.557 3.38 11.391 3 17.5-.03 7.79-1.2 15.29-3.5 22.5 1.41-1.287 2.91-2.454 4.5-3.5 8.49-3.743 16.82-7.743 25-12 4.25-3.581 7.75-7.748 10.5-12.5 2.99-6.977 5.82-13.977 8.5-21 4.51 7.677 7.01 16.011 7.5 25 .87 13.065.37 26.065-1.5 39-5.67 30.509-18.67 57.343-39 80.5 11.77-2.079 21.93 1.088 30.5 9.5.49 1.293.66 2.627.5 4-13.62.314-25.62 4.814-36 13.5-22.59 24.976-50.592 34.643-84 29-17.563-3.299-34.396-8.799-50.5-16.5-22.528 20.262-30.195 45.262-23 75 5.193 17.721 13.526 33.721 25 48 18.965 21.3 38.299 42.3 58 63 15.697 17.05 27.03 36.717 34 59 7.88 32.197 1.55 61.197-19 87-22.869 22.604-50.369 31.438-82.5 26.5-7.469-.927-14.802-2.427-22-4.5-7.903-2.412-15.57-5.412-23-9-12.101-5.55-24.101-11.383-36-17.5-2.596-1.136-5.263-1.969-8-2.5-3.832 17.328-7.665 34.661-11.5 52-3.246 22.597 3.254 41.764 19.5 57.5 7.333 6 15.666 9.833 25 11.5 30.408 4.13 52.408-7.537 66-35 2.51 4.025 4.343 8.358 5.5 13 2.937 15.6.104 29.934-8.5 43-.816 1.644-2.15 2.81-4 3.5 8.768.755 17.434.088 26-2 3.946-1.306 7.612-3.139 11-5.5 1.21 5.902.377 11.569-2.5 17-6.261 12.6-15.094 23.1-26.5 31.5-6.198 4.36-12.531 8.53-19 12.5 3.354 3.12 7.354 4.45 12 4 4.363.24 8.363-.76 12-3 1.114 1.22 1.281 2.56.5 4-1 1.67-2 3.33-3 5-20.731 18.38-38.065 39.38-52 63-6.411 13.16-13.078 26.16-20 39-4.821 6.66-11.321 9.99-19.5 10 1.074-5.14-.593-8.97-5-11.5-5.268-1.07-10.268-.4-15 2-4.467 3.47-8.633 7.3-12.5 11.5-10.667 14-21.333 28-32 42-16.471 18.15-36.971 28.15-61.5 30-6.929-.47-13.262-2.63-19-6.5-1.566-.76-2.899-.6-4 .5-6.673 6.51-12.84 13.51-18.5 21-1.044-1.12-1.71-2.46-2-4-.5-8.33-.666-16.66-.5-25-10.518.07-18.851-4.09-25-12.5-4.816-1.03-9.15-.03-13 3-4.39 4.12-8.057 8.79-11 14-1.244.46-2.077-.04-2.5-1.5-2.02-18.29 4.813-32.29 20.5-42-2.522-2.69-4.856-5.52-7-8.5-3.333-.67-6.667-.67-10 0-4.739 2.24-9.072 5.08-13 8.5-.921-12.01 3.079-22.17 12-30.5 1.667-.83 3.333-1.67 5-2.5 7.702-20.27 21.868-26.93 42.5-20 2.5-2.78 5.333-5.28 8.5-7.5 6.477-2.22 12.811-1.89 19 1 5.456 4.78 11.456 8.78 18 12 10.783.44 21.116-1.56 31-6 27.726-13.73 48.893-34.23 63.5-61.5 1.477-3.93 2.644-7.93 3.5-12-.671-8.19-5.004-13.69-13-16.5-11.075-3.58-22.409-4.92-34-4-2.804 8.59-6.471 16.76-11 24.5-1.637 1.98-3.304 3.98-5 6-6.609 7.43-14.942 11.43-25 12 5.053-13.62 2.053-24.95-9-34-1.971-1.32-3.971-2.66-6-4-7.522 14.21-18.855 23.54-34 28-2.333 0-4.667 0-7 0 2.53-5.07 4.53-10.41 6-16 2.739-11.38.572-21.71-6.5-31-6.699-6.364-13.032-13.031-19-20-4.606-6.545-8.106-13.545-10.5-21-3.764-19.218-1.931-37.884 5.5-56 5.606-10.878 10.939-21.878 16-33 4.906-11.5 4.573-22.833-1-34-.195 6.064-.861 12.064-2 18-7.064 13.794-14.398 27.461-22 41-2.336 4.843-4.169 9.843-5.5 15-27.4 8.421-40.233 27.087-38.5 56 2.678 22.211 14.511 37.044 35.5 44.5 5.184.82 10.184.65 15-.5 1.333 0 2 .67 2 2-8.633 16.62-22.3 22.79-41 18.5-3.764-.87-7.431-2.03-11-3.5-.333.33-.667.67-1 1 5.104 8.06 12.437 12.9 22 14.5 3.652.5 7.318.67 11 .5-3.55 9.7-10.55 15.2-21 16.5-3.667.67-7.333.67-11 0-9.667-2.33-19.333-4.67-29-7-10.044-1.32-19.377.68-28 6-11.991 9-24.658 17-38 24-9.676 4.09-19.676 5.59-30 4.5 5.977-14.04 1.31-21.37-14-22-10.394.86-20.061 4.03-29 9.5-13.588 9.24-27.921 17.24-43 24-9.311 3.71-18.977 5.54-29 5.5-10.362-.34-19.362-4.01-27-11-1.692 1.86-3.192 3.86-4.5 6-2.415 6.75-4.915 13.42-7.5 20-1.084-1.17-1.917-2.5-2.5-4-3.897-14.93-4.397-29.93-1.5-45-8.457-3.63-15.957-8.63-22.5-15-2.155 1.08-4.155 2.41-6 4-3.521 5.04-6.521 10.37-9 16-2.392-3.2-3.725-6.87-4-11-2.943-12.68.89-22.68 11.5-30 .828-4.3 1.328-8.63 1.5-13 .78-3.01 1.947-5.85 3.5-8.5-5.194-1.24-9.86-.24-14 3-2.459 2.45-4.792 4.95-7 7.5-3.217-17.071 3.116-28.904 19-35.5 6.79-.364 13.457-.531 20-.5 1.124-1.414 2.124-2.914 3-4.5-3.15-7.071-8.483-9.404-16-7-8.762 4.649-10.262 2.482-4.5-6.5 10.995-12.165 23.828-14.332 38.5-6.5 4.076 4.736 9.076 5.903 15 3.5 4.536-.2 8.869.633 13 2.5l30 24c6.481 4.049 13.481 6.716 21 8 28.086 3.097 54.753-1.569 80-14 12.803-7.109 17.97-17.942 15.5-32.5-1.556-4.78-3.889-9.113-7-13-8.045-9.042-15.711-18.376-23-28-5.036-7.277-8.203-15.277-9.5-24-19.865 2.825-33.698-4.842-41.5-23-.781-1.444-.614-2.777.5-4 11.108 5.492 22.108 5.325 33-.5l3-3c-14.609 2.195-25.276-3.305-32-16.5-1.684-5.176-2.35-10.509-2-16 2.185.204 4.185.87 6 2 8.081 4.001 16.081 3.501 24-1.5 5.626-7.294 11.626-14.294 18-21 9.738-7.363 20.738-11.696 33-13 17.374-.891 34.708-2.224 52-4 11.98-1.742 22.48-6.575 31.5-14.5.667-.667.667-1.333 0-2-11.707-11.206-22.874-22.873-33.5-35-6.498-7.334-12.832-14.834-19-22.5-42.482 1.382-82.149 12.715-119 34-12.221 6.554-21.387 16.054-27.5 28.5-2.74 12.921-5.074 25.921-7 39-2.836 6.831-6.502 13.164-11 19-1.304 5.923-1.804 11.923-1.5 18 .308 2.424-.026 4.757-1 7-2.019-1.69-4.019-3.356-6-5-3.304-5.614-5.804-11.614-7.5-18-6.339-1.245-11.172-4.578-14.5-10-.187-2.064-.687-4.064-1.5-6-6.54 9.636-15.706 14.136-27.5 13.5-2.995 6.464-4.329 13.297-4 20.5-3.142-.299-5.309-1.966-6.5-5-5.679-9.705-6.846-19.872-3.5-30.5-3.366-6.591-3.7-13.257-1-20-12.78-1.8-20.614-8.967-23.5-21.5-5.992-2.626-11.825-2.126-17.5 1.5-3.615 3.419-6.615 7.253-9 11.5-2.769-21.626 6.564-34.459 28-38.5 2.813-3.981 6.147-7.481 10-10.5-3.587-5.092-5.587-10.759-6-17-8.828-1.082-15.828 1.918-21 9-.971-15.888 5.696-27.388 20-34.5 5.276-1.767 10.609-1.934 16-.5 9.222-4.239 18.222-3.739 27 1.5 5.969 4.967 11.635 10.301 17 16 5.488 2.915 11.155 3.248 17 1 36.616-26.949 72.95-54.282 109-82-14.274-14.613-29.441-28.113-45.5-40.5-.961 8.926-4.795 16.259-11.5 22-5.796-23.613-18.13-42.947-37-58-14.541-13.794-31.875-20.627-52-20.5-10.659 4.317-19.993 10.65-28 19-3.703 2.354-7.703 3.854-12 4.5-3.018-.165-6.018.002-9 .5-15.995 7.584-27.828 3.417-35.5-12.5-2.15-4.565-2.984-9.231-2.5-14 3.337 2.671 7.004 4.837 11 6.5 3.667.667 7.333.667 11 0-.213-7.032 2.454-12.699 8-17 4.602-1.867 9.268-3.534 14-5 1.549-1.214 2.715-2.714 3.5-4.5.667-4.333.667-8.667 0-13-2.654-5.337-6.987-7.67-13-7-8.153.973-16.32 1.14-24.5.5-6.074-2.193-10.741-6.026-14-11.5-.876-.751-1.876-1.251-3-1.5-5.667-.667-11.333-.667-17 0-4.472 1.972-7.805 5.138-10 9.5-3.123-12.279.877-21.779 12-28.5 4.129-2.321 8.463-4.154 13-5.5 1.627-8.779 6.293-15.279 14-19.5-2.957-4.314-4.457-9.147-4.5-14.5-7.386-7.279-16.219-10.446-26.5-9.5-2.246 1.039-4.413 2.206-6.5 3.5.982-12 7.482-19.5 19.5-22.5 9.026-1.322 17.693-.155 26 3.5 4.992-4 10.659-6 17-6 .992-3.322 1.992-6.655 3-10-3.59-11.918-11.59-18.918-24-21 4.626-6.042 10.792-8.709 18.5-8 14.47.476 24.637 7.309 30.5 20.5 2.42.29 4.754.79 7 1.5 4.008 1.842 6.841 4.842 8.5 9 .548 18.953 4.215 37.287 11 55 4.609 9.939 10.775 18.772 18.5 26.5 11.58 1.895 22.914 4.728 34 8.5 23.75 12.711 47.75 25.211 72 37.5 20.938 7.821 42.605 11.987 65 12.5-2.153 5.639-4.819 10.972-8 16-6.977 8.133-15.31 14.633-25 19.5 14.128-.229 24.794-6.396 32-18.5 8.391-11.761 16.558-23.761 24.5-36 5.365-6.531 11.198-12.531 17.5-18 10.178-7.336 20.511-14.503 31-21.5 14.738-9.978 20.904-23.811 18.5-41.5-3.158-10.166-9.991-14-20.5-11.5-16.249 9.244-31.083 20.411-44.5 33.5.216 4.832 1.383 9.499 3.5 14-3.183 1.303-6.183.969-9-1-3.338-2.015-6.338-4.515-9-7.5-1.525-1.009-3.192-1.509-5-1.5.482 7.408 1.482 14.742 3 22-1.699.16-3.366-.006-5-.5-10.5-6.5-19-15-25.5-25.5-3.885-7.63-4.385-15.464-1.5-23.5-2.244-6.631-3.244-13.465-3-20.5 4.936 2.468 9.936 4.968 15 7.5 6.055 1 11.721.167 17-2.5 7.987-3.155 13.487-8.822 16.5-17 1.644-4.577 2.978-9.244 4-14 2.223-6.981.057-11.815-6.5-14.5-12.19-1.116-24.19-.283-36 2.5-6.024.914-10.524 3.914-13.5 9-.159 6.041.341 12.041 1.5 18-11.494-4.013-21.328-10.68-29.5-20-7.543-8.929-8.376-18.429-2.5-28.5-.667-.667-1.333-.667-2 0-2.483 2.406-5.15 4.573-8 6.5-2.432-4.184-4.265-8.517-5.5-13 16.127-15.133 33.127-29.133 51-42 3.392-10.724 9.226-19.891 17.5-27.5 10.863-7.695 21.863-15.195 33-22.5 1.213-19.592 9.213-35.759 24-48.5 12.417-9.079 24.25-18.913 35.5-29.5 1.838-3.676 3.671-7.342 5.5-11 9.209 9.163 12.709 20.163 10.5 33 18.561-21.416 42.061-30.916 70.5-28.5 10.384.213 20.384 2.213 30 6-6.459 4.79-12.626 9.957-18.5 15.5-.591.983-.257 1.65 1 2 34.372-6.864 65.205.47 92.5 22z" fill="#fee407"/><path d="m1181.5 159.5c1.33 185.332 2 370.999 2 557 0 185.834-.33 371.5-1 557 .33-371.403 0-742.736-1-1114z" fill="#5c3157" opacity=".753"/><path d="m270.5 169.5c6.848 10.517 12.848 21.684 18 33.5 12.072 1.749 24.072 3.749 36 6-9.043 8.708-17.71 17.708-26 27 2.978 12.03 4.811 24.197 5.5 36.5-10.634-6.067-21.467-11.733-32.5-17-11.033 5.267-21.866 10.933-32.5 17 .905-12.264 2.738-24.431 5.5-36.5-8.29-9.292-16.957-18.292-26-27 11.853-2.815 23.853-4.815 36-6 6.019-10.869 11.352-22.036 16-33.5z" fill="#fefefe"/><path d="m763.5 198.5c.417-.624 1.084-.957 2-1 14.305 3.487 27.305 9.653 39 18.5 15.237 13.236 29.071 27.736 41.5 43.5 8.375 10.052 18.208 18.219 29.5 24.5 4.006 1.168 8.006 2.335 12 3.5-6.953 10.833-16.953 15.666-30 14.5 6.027 5.374 10.527 11.874 13.5 19.5 6.14 18.086 12.473 36.086 19 54 3.738 7.278 9.572 11.778 17.5 13.5-12.746 7.881-25.746 8.547-39 2 3.62 5.976 5.62 12.476 6 19.5-.553 7.544-2.053 14.877-4.5 22-1.336 8.668-.336 17.002 3 25 2.741 3.229 5.241 6.562 7.5 10-2 2.667-4.333 5-7 7-9.535-.678-18.035-4.012-25.5-10 2.86 6.077 5.527 12.41 8 19 .705 8.361.538 16.694-.5 25-5.703 23.161-5.037 46.161 2 69-12.885.851-24.552-2.815-35-11-.831 6.307-1.331 12.641-1.5 19-2.333 9.333-4.667 18.667-7 28-3.353 21.438-1.687 42.438 5 63 10.176 25.352 21.176 50.352 33 75 4.826 12.469 8.326 25.302 10.5 38.5-.184 1.376-.851 2.209-2 2.5-13.765-7.083-27.765-13.749-42-20-1.178-7.726-2.678-15.392-4.5-23-8.125-24.92-18.458-48.92-31-72-11.99-23.96-16.99-49.294-15-76 2.842-13.702 5.842-27.368 9-41 .552-5.077.552-10.077 0-15 12.703 10.891 26.869 13.891 42.5 9-11.737-10.041-16.237-22.707-13.5-38 2.65-14.264 4.816-28.597 6.5-43-.076-6.213-1.243-12.213-3.5-18-2.088-4.177-4.088-8.177-6-12 10.554 8.961 22.72 12.461 36.5 10.5 1.786-.196 3.119-1.029 4-2.5-18.574-12.803-23.407-29.803-14.5-51 .167-3.167.333-6.333.5-9.5.584-7.245-1.083-13.912-5-20 2.995.646 5.995 1.646 9 3 6.333.667 12.667.667 19 0 4.075-.624 7.408-2.457 10-5.5-7.342-2.077-12.842-6.411-16.5-13-6.639-17.89-12.973-35.89-19-54-2.984-7.305-7.15-13.805-12.5-19.5 12.822.591 22.489-4.576 29-15.5-10.288-1.479-19.288-5.645-27-12.5-12.574-12.57-24.407-25.737-35.5-39.5-5.404-5.909-11.237-11.242-17.5-16z" fill="#7da3c8"/><path d="m500.5 278.5c7.008-.166 14.008 0 21 .5-2.5 1.167-4.333 3-5.5 5.5-2.263 6.361-5.429 12.194-9.5 17.5-10.003 5.205-17.169 2.705-21.5-7.5-1.163-4.845.337-8.679 4.5-11.5 3.657-1.822 7.324-3.322 11-4.5z" fill="#7697bb"/><path d="m883.5 840.5c7.198 2.073 14.531 3.573 22 4.5 32.131 4.938 59.631-3.896 82.5-26.5 20.55-25.803 26.88-54.803 19-87-6.97-22.283-18.303-41.95-34-59-19.701-20.7-39.035-41.7-58-63-11.474-14.279-19.807-30.279-25-48-7.195-29.738.472-54.738 23-75 16.104 7.701 32.937 13.201 50.5 16.5 33.408 5.643 61.41-4.024 84-29 10.38-8.686 22.38-13.186 36-13.5.16-1.373-.01-2.707-.5-4-8.57-8.412-18.73-11.579-30.5-9.5 20.33-23.157 33.33-49.991 39-80.5 14.98-3.562 25.81-12.229 32.5-26 2.13-5.678 4.13-11.345 6-17 2.19 3.054 3.86 6.388 5 10 8.83 50.875-3.67 95.708-37.5 134.5 11.09-1.602 20.92 1.231 29.5 8.5.49 1.293.66 2.627.5 4-9.61.288-18.61 2.788-27 7.5-9.38 8.377-19.04 16.377-29 24-23.04 13.038-47.37 16.038-73 9-13.999-3.444-27.499-8.277-40.5-14.5-19.391 16.463-28.058 37.463-26 63 2.371 17.072 8.371 32.739 18 47 3.667 5 7.333 10 11 15 16.932 19.602 34.599 38.602 53 57 14.86 16.213 26.52 34.546 35 55 10.33 33.065 5.66 63.731-14 92-18.08 20.786-40.909 30.786-68.5 30-21.344.081-41.677-4.419-61-13.5-7.697-3.38-15.03-7.214-22-11.5z" fill="#7da3c8"/><path d="m492.5 400.5c-8.869-5.031-16.369-11.697-22.5-20-3.482-7.839-3.316-15.506.5-23 11.81-2.783 23.81-3.616 36-2.5 6.557 2.685 8.723 7.519 6.5 14.5-1.022 4.756-2.356 9.423-4 14-3.013 8.178-8.513 13.845-16.5 17z" fill="#7ea3c8"/><path d="m277.5 368.5c16.756-3.457 29.089 2.543 37 18 8.107 1.125 13.607 5.458 16.5 13-.364 24.553 5.803 47.22 18.5 68-11.086-3.772-22.42-6.605-34-8.5-7.725-7.728-13.891-16.561-18.5-26.5-6.785-17.713-10.452-36.047-11-55-1.659-4.158-4.492-7.158-8.5-9z" fill="#7da3c8"/><path d="m527.5 480.5c-10.1-7.088-17.1-16.421-21-28 2.817 1.969 5.817 2.303 9 1-2.117-4.501-3.284-9.168-3.5-14 13.417-13.089 28.251-24.256 44.5-33.5 10.509-2.5 17.342 1.334 20.5 11.5 2.404 17.689-3.762 31.522-18.5 41.5-10.489 6.997-20.822 14.164-31 21.5z" fill="#7ea3c8"/><path d="m873.5 474.5c-7.576 10.486-13.576 21.819-18 34 1.038-8.306 1.205-16.639.5-25-2.473-6.59-5.14-12.923-8-19 7.465 5.988 15.965 9.322 25.5 10z" fill="#94bde2"/><path d="m351.5 550.5c-6.563-.091-12.563 1.742-18 5.5-6.667 5.333-13.333 10.667-20 16-10.559 1.562-20.892 3.729-31 6.5-7.122.189-12.956-2.477-17.5-8-3.173-4.846-5.673-10.012-7.5-15.5.916-.278 1.582-.778 2-1.5 4.297-.646 8.297-2.146 12-4.5 8.007-8.35 17.341-14.683 28-19 20.125-.127 37.459 6.706 52 20.5z" fill="#7da3c8"/><path d="m478.5 533.5c2.559-.302 4.893.032 7 1-7.206 12.104-17.872 18.271-32 18.5 9.69-4.867 18.023-11.367 25-19.5z" fill="#85a7c3"/><path d="m857.5 577.5c2.84 7.36 6.007 14.693 9.5 22 11.356 20.027 25.022 38.36 41 55 18.483 17.808 35.483 36.808 51 57 9.539 13.283 14.706 28.116 15.5 44.5-1.608 34.941-19.774 53.108-54.5 54.5-21.412-1.084-41.245-7.084-59.5-18 1.149-.291 1.816-1.124 2-2.5-2.174-13.198-5.674-26.031-10.5-38.5-11.824-24.648-22.824-49.648-33-75-6.687-20.562-8.353-41.562-5-63 2.333-9.333 4.667-18.667 7-28 .169-6.359.669-12.693 1.5-19 10.448 8.185 22.115 11.851 35 11z" fill="#94bee4"/><path d="m536.5 728.5c-36.927 5.306-70.927 18.139-102 38.5-17.228 13.145-24.895 30.645-23 52.5-1.815-1.13-3.815-1.796-6-2-.35 5.491.316 10.824 2 16-3.391 4.428-6.558 9.094-9.5 14-.999 8.307-1.832 16.64-2.5 25-7.047-6.082-11.547-13.749-13.5-23-8.618-1.952-13.952-7.285-16-16-3.518 5.498-8.352 9.164-14.5 11-.304-6.077.196-12.077 1.5-18 4.498-5.836 8.164-12.169 11-19 1.926-13.079 4.26-26.079 7-39 6.113-12.446 15.279-21.946 27.5-28.5 36.851-21.285 76.518-32.618 119-34 6.168 7.666 12.502 15.166 19 22.5z" fill="#7da3c8"/><path d="m536.5 728.5c10.626 12.127 21.793 23.794 33.5 35 .667.667.667 1.333 0 2-9.02 7.925-19.52 12.758-31.5 14.5-17.292 1.776-34.626 3.109-52 4-12.262 1.304-23.262 5.637-33 13-6.374 6.706-12.374 13.706-18 21-7.919 5.001-15.919 5.501-24 1.5-1.895-21.855 5.772-39.355 23-52.5 31.073-20.361 65.073-33.194 102-38.5z" fill="#94bde4"/><path d="m860.5 831.5c.165 3.018-.002 6.018-.5 9-3.712 12.225-7.045 24.559-10 37-4.6 19.83-1.1 37.997 10.5 54.5-3.652.499-7.318.665-11 .5-9.334-1.667-17.667-5.5-25-11.5-16.246-15.736-22.746-34.903-19.5-57.5 3.835-17.339 7.668-34.672 11.5-52 2.737.531 5.404 1.364 8 2.5 11.899 6.117 23.899 11.95 36 17.5z" fill="#7da3c8"/><path d="m322.5 818.5c3.328 5.422 8.161 8.755 14.5 10 1.696 6.386 4.196 12.386 7.5 18-5.303-.764-8.136 1.57-8.5 7 1.083 17.685-2.25 19.018-10 4-3.884-8.496-4.384-17.162-1.5-26-1.412-4.217-2.079-8.55-2-13z" fill="#7ea4c8"/><path d="m625.5 950.5c-5.31 17.115-3.643 33.448 5 49-.743.68-1.409 1.35-2 2-4.816 1.15-9.816 1.32-15 .5-20.989-7.456-32.822-22.289-35.5-44.5-1.733-28.913 11.1-47.579 38.5-56 1.331-5.157 3.164-10.157 5.5-15 7.602-13.539 14.936-27.206 22-41 1.139-5.936 1.805-11.936 2-18 5.573 11.167 5.906 22.5 1 34-5.061 11.122-10.394 22.122-16 33-7.431 18.116-9.264 36.782-5.5 56z" fill="#7ea4c8"/><path d="m678.5 1200.5c1.101-1.1 2.434-1.26 4-.5 5.738 3.87 12.071 6.03 19 6.5 24.529-1.85 45.029-11.85 61.5-30 10.667-14 21.333-28 32-42 3.867-4.2 8.033-8.03 12.5-11.5 4.732-2.4 9.732-3.07 15-2 4.407 2.53 6.074 6.36 5 11.5 8.179-.01 14.679-3.34 19.5-10 6.922-12.84 13.589-25.84 20-39 13.935-23.62 31.269-44.62 52-63 1-1.67 2-3.33 3-5 .781-1.44.614-2.78-.5-4-3.637 2.24-7.637 3.24-12 3-4.646.45-8.646-.88-12-4 6.469-3.97 12.802-8.14 19-12.5 11.406-8.4 20.239-18.9 26.5-31.5 2.877-5.431 3.71-11.098 2.5-17-3.388 2.361-7.054 4.194-11 5.5-8.566 2.088-17.232 2.755-26 2 1.85-.69 3.184-1.856 4-3.5 22.627-3.137 38.46-15.137 47.5-36 8.842 17.747 8.508 35.413-1 53-1.458 2.46-3.291 4.627-5.5 6.5 13.216 1.52 25.549-.98 37-7.5.359 8.555-1.808 16.555-6.5 24-11.342 15.67-25.509 28.17-42.5 37.5 7.682 4.1 15.682 4.6 24 1.5 1.163 2.05.996 4.05-.5 6-8.303 9.3-16.969 18.3-26 27-10.496 12.16-19.83 25.16-28 39-6.411 13.16-13.078 26.16-20 39-4.666 6.08-10.832 9.08-18.5 9-.376-10.38-5.709-14.21-16-11.5-7.044 4.04-13.211 9.2-18.5 15.5-11.944 18.29-25.777 35.12-41.5 50.5-17.364 14.9-37.364 20.9-60 18-4.047-1.44-7.88-3.27-11.5-5.5-8.077 6.24-14.911 13.57-20.5 22-1.29-2.16-2.124-4.49-2.5-7-.5-6.99-.666-13.99-.5-21-8.042-.96-15.208-3.96-21.5-9-.791-1.24-1.291-2.58-1.5-4z" fill="#7da3c8"/><path d="m625.5 950.5c2.394 7.455 5.894 14.455 10.5 21 5.968 6.969 12.301 13.636 19 20 7.072 9.29 9.239 19.62 6.5 31-12.573-2.54-22.406-9.21-29.5-20-.383.56-.883.89-1.5 1 0-1.33-.667-2-2-2 .591-.65 1.257-1.32 2-2-8.643-15.552-10.31-31.885-5-49z" fill="#94bde3"/><path d="m799.5 1026.5c-1 0-2 0-3 0-3.346 16.55-12.012 29.39-26 38.5-4.507 1.89-9.173 3.06-14 3.5 5.973-17.09.973-29.76-15-38 4.529-7.74 8.196-15.91 11-24.5 11.591-.92 22.925.42 34 4 7.996 2.81 12.329 8.31 13 16.5z" fill="#7da3c8"/><path d="m702.5 1014.5c11.053 9.05 14.053 20.38 9 34 10.058-.57 18.391-4.57 25-12-7.875 14.26-19.875 21.26-36 21 7.024-11.14 8.857-23.14 5.5-36-1.705-2.08-2.872-4.41-3.5-7z" fill="#80a4c7"/><path d="m661.5 1022.5c-1.47 5.59-3.47 10.93-6 16h7c-9.02 5.22-18.687 6.39-29 3.5-12.881-5.64-14.214-3.64-4 6 8.251 5.15 17.251 7.65 27 7.5-7.296 12.72-18.296 17.89-33 15.5-9.354-2.01-18.688-4.01-28-6-6.724-.77-13.39-.44-20 1-15.333 9.33-30.667 18.67-46 28-10.319 4.06-20.985 6.06-32 6 5.897-7.62 5.23-14.62-2-21-6.865-2.92-13.865-3.25-21-1-6.904 2.45-13.57 5.45-20 9-17.44 12.42-36.44 21.76-57 28-15.291 3.26-28.958.1-41-9.5-2.9 2.78-5.066 6.12-6.5 10-1.277 5.26-3.111 10.26-5.5 15-2.89-5.19-4.723-10.86-5.5-17-.499-5.99-.666-11.99-.5-18 10.023.04 19.689-1.79 29-5.5 15.079-6.76 29.412-14.76 43-24 8.939-5.47 18.606-8.64 29-9.5 15.31.63 19.977 7.96 14 22 10.324 1.09 20.324-.41 30-4.5 13.342-7 26.009-15 38-24 8.623-5.32 17.956-7.32 28-6 9.667 2.33 19.333 4.67 29 7 3.667.67 7.333.67 11 0 10.45-1.3 17.45-6.8 21-16.5-3.682.17-7.348 0-11-.5-9.563-1.6-16.896-6.44-22-14.5.333-.33.667-.67 1-1 3.569 1.47 7.236 2.63 11 3.5 18.7 4.29 32.367-1.88 41-18.5.617-.11 1.117-.44 1.5-1 7.094 10.79 16.927 17.46 29.5 20z" fill="#7da3c8"/><path d="m1036.5 1275.5c21.94 19.75 45.27 37.91 70 54.5 3.77 2.22 7.77 3.89 12 5-11.59 8.38-23.09 16.88-34.5 25.5 1.5-5.18.33-9.68-3.5-13.5-5.22-4.86-10.72-9.36-16.5-13.5-7.9 5.56-16.07 10.73-24.5 15.5-1.71.78-2.71 2.11-3 4 1.75 8.67 4.41 17 8 25 1.77 1.44 3.77 2.44 6 3-9.67 5.5-19.33 11-29 16.5.45-10-.38-20-2.5-30-3.62-19.08-7.62-38.08-12-57-.81-4.26-2.31-8.26-4.5-12 11.36-7.68 22.7-15.34 34-23z" fill="#490226"/><path d="m240.5 1276.5c12.277 7.81 24.61 15.65 37 23.5-2.394 1.95-3.894 4.45-4.5 7.5-5.761 23.23-11.095 46.57-16 70-.407 7.17-.574 14.17-.5 21-12.333-7.17-24.667-14.33-37-21.5 3.566-.7 6.4-2.53 8.5-5.5 2.669-7.34 4.836-14.84 6.5-22.5-.259-1.26-.926-2.26-2-3-7.837-4.75-15.504-9.75-23-15-1.333-.67-2.667-.67-4 0-6.813 4.82-12.98 10.32-18.5 16.5-.186 2.4-.686 4.73-1.5 7-9.471-6.31-18.805-12.81-28-19.5 12.015-4.17 23.015-10.17 33-18 15.667-11.67 31.333-23.33 47-35 1.66-1.49 2.66-3.32 3-5.5z" fill="#490226"/><path d="m593.5 1278.5c9.185-1.12 17.852.38 26 4.5 7.372 9.15 6.372 17.31-3 24.5 13.044 8.22 14.377 18.06 4 29.5-9.607 4.7-19.607 5.7-30 3-13.263-6.44-15.93-15.78-8-28 2.17-1.59 4.504-2.92 7-4-11.034-7.9-11.701-16.56-2-26 2.227-.94 4.227-2.11 6-3.5z" fill="#fcfdfe"/><path d="m546.5 1279.5h11v61c-4.333 0-8.667 0-13 0 .333-14.02-.001-28.02-1-42-3.528 1.42-7.194 2.09-11 2 0-3.33 0-6.67 0-10 5.558.3 10.058-1.7 13.5-6 .494-1.63.66-3.3.5-5z" fill="#fdfdfe"/><path d="m641.5 1279.5h44c.165 3.35-.002 6.68-.5 10-13.452 14.25-20.286 31.25-20.5 51-4.333 0-8.667 0-13 0 .11-19.16 6.776-35.66 20-49.5-9.994-.5-19.994-.67-30-.5 0-3.67 0-7.33 0-11z" fill="#fcfdfe"/><path d="m722.5 1279.5h14v37h9v11c-3 0-6 0-9 0v13c-4.667 0-9.333 0-14 0 0-4.33 0-8.67 0-13-9.333 0-18.667 0-28 0-.166-4.35.001-8.68.5-13 9.658-11.33 18.824-23 27.5-35z" fill="#fbfcfe"/><path d="m598.5 1287.5c4.662-.7 8.829.3 12.5 3 3.209 8.58.209 12.91-9 13-6.992-.29-9.992-3.96-9-11 1.73-1.9 3.563-3.57 5.5-5z" fill="#97c0e5"/><path d="m249.5 1292.5c.739-.13 1.406.04 2 .5-5.317 13.12-9.317 26.62-12 40.5-1.052.15-2.052-.02-3-.5-6-4-12-8-18-12 9.333-8 18.667-16 28-24 1.641-1.13 2.641-2.63 3-4.5z" fill="#92b9e0"/><path d="m722.5 1294.5c.992 7.15 1.325 14.48 1 22-6.009.17-12.009 0-18-.5 5.881-7.04 11.547-14.21 17-21.5z" fill="#99c1e6"/><path d="m1020.5 1296.5c10.97 8.97 21.64 18.3 32 28-6.21 4.69-12.71 9.03-19.5 13-4.07-13.71-8.24-27.38-12.5-41z" fill="#92b9e0"/><path d="m597.5 1312.5c13.454-1.4 18.121 4.1 14 16.5-7.32 5.2-13.82 4.36-19.5-2.5-1.732-6.19.101-10.85 5.5-14z" fill="#96bfe5"/><path d="m312.5 1325.5c19.625 1.15 36.625 8.32 51 21.5-2.453 6.7-5.286 13.2-8.5 19.5-5.456-16.45-16.622-23.95-33.5-22.5-3.825 4.63-3.991 9.47-.5 14.5 7.047 8.04 13.713 16.38 20 25 7.555 13.89 5.388 26.06-6.5 36.5-7.473 4.24-15.473 5.57-24 4-13.221-3.78-25.555-9.44-37-17-3.679-2.35-6.679-5.35-9-9 3.366-6.56 6.866-13.06 10.5-19.5 5.886 18.88 18.719 28.05 38.5 27.5 3.862-2.92 5.362-6.75 4.5-11.5-7.333-10-14.667-20-22-30-7.621-18.74-2.121-31.74 16.5-39z" fill="#490226"/><path d="m942.5 1329.5h3c.495 7.32 2.328 14.32 5.5 21 8.644 17.79 17.144 35.62 25.5 53.5 7.727-2.19 15.06-5.53 22-10 4.41-4.06 7.57-8.9 9.5-14.5 2.97 6.44 5.8 12.94 8.5 19.5-.14.77-.48 1.44-1 2-20.878 10.86-42.044 21.02-63.5 30.5-.014-6.18-1.014-12.18-3-18-8.45-20.9-17.45-41.57-27-62-2.167-3.5-5-6.33-8.5-8.5 10.237-3.46 19.903-7.96 29-13.5z" fill="#490225"/><g fill="#490226"><path d="m372.5 1348.5c16.985 5.72 33.985 11.55 51 17.5 8.886 2.97 17.886 5.47 27 7.5-1.024 6.43-2.524 12.77-4.5 19-7.148-7.91-15.814-12.24-26-13-7.076 21.23-13.743 42.56-20 64-.323 5.46-.49 10.79-.5 16-12.149-4.25-24.149-8.75-36-13.5 3.89-2.6 6.723-6.1 8.5-10.5 8.128-21.22 15.962-42.55 23.5-64-3.941-2.49-8.275-4.32-13-5.5-5.718-.52-11.385-.52-17 0 3.219-5.49 5.553-11.33 7-17.5z"/><path d="m872.5 1358.5h4c-.534 7.93.633 15.59 3.5 23 6.136 18.08 12.469 36.08 19 54 .561.52 1.228.86 2 1 10.739-2.56 20.072-7.56 28-15 1.197-2.59 2.197-5.26 3-8 2.568 7.04 4.735 14.2 6.5 21.5-.255 1.33-.922 2.33-2 3-21.145 7.99-42.478 15.49-64 22.5.02-4.5-.146-9.16-.5-14-6.605-24.81-14.605-49.15-24-73-1.5-1.5-3-3-4.5-4.5 9.891-3.05 19.558-6.55 29-10.5z"/><path d="m827.5 1372.5c.997-.03 1.664.47 2 1.5-1.05 3.46-1.217 6.96-.5 10.5 6.091 25.7 13.424 51.03 22 76l4.5 4.5c-12.576 3.64-25.243 6.64-38 9 1.938-4.64 2.438-9.47 1.5-14.5-4.573-23.96-10.24-47.62-17-71-1.643-2.48-3.476-4.81-5.5-7 10.507-2.77 20.841-5.77 31-9z"/></g><path d="m483.5 1382.5c51.562 1.38 70.062 26.71 55.5 76-8.806 16.75-22.806 25.08-42 25-19.249-.46-35.583-7.46-49-21-8.721-15.11-9.721-30.77-3-47 6.931-18.11 19.765-29.11 38.5-33z" fill="#490225"/><path d="m790.5 1381.5c.543.06.876.39 1 1-3.071 5.61-4.904 11.61-5.5 18-2.859 27.48-6.692 54.82-11.5 82-9.907 2.25-19.907 4.08-30 5.5-3.382.82-6.716.66-10-.5-12.373-25.29-23.873-50.96-34.5-77-2.306-5.11-5.472-9.61-9.5-13.5 11.044-.78 22.044-1.95 33-3.5 1.333.33 2.667.67 4 1-1.966 3.05-2.466 6.38-1.5 10 9.801 23.6 20.134 46.93 31 70 3.161-23.97 5.995-47.97 8.5-72 1.118-5.81-.548-10.48-5-14 9.325-1.88 18.659-3.71 28-5.5.916-.28 1.582-.78 2-1.5z" fill="#490225"/><path d="m562.5 1395.5c11.549 1.02 23.049 2.02 34.5 3 11.137 24.94 22.804 49.61 35 74 .667-22 .667-44 0-66-.639-2.61-1.806-4.95-3.5-7 8.982-1.17 17.982-1.33 27-.5-1.961 3.21-3.127 6.71-3.5 10.5-.367 28.33-.2 56.67.5 85-11.581.32-23.081-.01-34.5-1-13.294-23.92-24.961-48.59-35-74-2.709 21.6-4.043 43.26-4 65 .735 2.37 1.568 4.7 2.5 7-10.062 1.05-20.062.55-30-1.5 1.587-1.84 2.921-3.84 4-6 4.777-25.1 7.777-50.44 9-76 .17-4.35-.496-8.52-2-12.5z" fill="#480125"/><path d="m490.5 1397.5c17.375-1.29 26.041 6.71 26 24-.094 13.3-2.927 25.97-8.5 38-7.756 9.35-17.256 11.52-28.5 6.5-7.911-5.16-11.244-12.49-10-22 .188-14.26 4.022-27.43 11.5-39.5 2.825-2.98 5.992-5.31 9.5-7z" fill="#93bce3"/></svg>