<?xml version="1.0" encoding="UTF-8" standalone="no"?>
<!-- Generator: Adobe Illustrator 14.0.0, SVG Export Plug-In . SVG Version: 6.00 Build 43363)  -->

<svg
   xmlns:dc="http://purl.org/dc/elements/1.1/"
   xmlns:cc="http://creativecommons.org/ns#"
   xmlns:rdf="http://www.w3.org/1999/02/22-rdf-syntax-ns#"
   xmlns:svg="http://www.w3.org/2000/svg"
   xmlns="http://www.w3.org/2000/svg"
   xmlns:xlink="http://www.w3.org/1999/xlink"
   xmlns:sodipodi="http://sodipodi.sourceforge.net/DTD/sodipodi-0.dtd"
   xmlns:inkscape="http://www.inkscape.org/namespaces/inkscape"
   version="1.1"
   id="Layer_1"
   x="0px"
   y="0px"
   width="300"
   height="300"
   viewBox="0 0 700 700"
   enable-background="new 0 0 56.75 57.083"
   xml:space="preserve"
   inkscape:version="0.91 r13725"
   sodipodi:docname="Brighton_&amp;_Hove_Albion_logo.svg">
<defs
     id="defs21"><defs
       id="defs7"><rect
         id="SVGID_1_"
         x="0.72500002"
         y="-6.2940001"
         width="70.864998"
         height="66.613998" /></defs><clipPath
       id="SVGID_2_"><use
         xlink:href="#SVGID_1_"
         overflow="visible"
         id="use11"
         style="overflow:visible"
         x="0"
         y="0"
         width="100%"
         height="100%" /></clipPath></defs><g
     id="g4455"
     transform="matrix(13.397898,0,0,13.397643,-31.99418,-33.97647)"><g
       id="g4445"><path
         style="fill:#005daa"
         d="m 2.388,28.659 c 0,14.427 11.696,26.125 26.124,26.125 14.427,0 26.123,-11.698 26.123,-26.125 C 54.635,14.231 42.938,2.536 28.512,2.536 14.084,2.536 2.388,14.232 2.388,28.659 Z"
         id="path4364"
         inkscape:connector-curvature="0"
         sodipodi:nodetypes="ssscs" /><path
         style="fill:#ffffff"
         d="m 28.512,53.778 c -13.874,0 -25.119,-11.246 -25.119,-25.12 0,-13.872 11.245,-25.119 25.119,-25.119 13.874,0 25.119,11.247 25.119,25.119 0,13.874 -11.245,25.12 -25.119,25.12"
         id="path4362"
         inkscape:connector-curvature="0" /><path
         style="fill:#005daa;fill-opacity:1"
         d="M 51.912,25.603 C 51.591,25.431 51.098,25.203 50.391,24.906 49.663,24.602 48.159,24.122 46.6,23.706 44.426,15.75 37.154,9.903 28.512,9.903 c -9.681,0 -17.646,7.336 -18.646,16.75 -0.954,0.142 -1.865,0.253 -2.656,0.336 -1.566,0.163 -2.653,0.221 -2.655,0.222 -0.059,0.003 -0.104,0.048 -0.112,0.105 -10e-4,0.005 -10e-4,0.011 -10e-4,0.02 -0.004,0.086 0.057,0.445 0.65,0.747 0.592,0.308 1.713,0.587 3.885,0.589 0.245,0 0.506,-0.007 0.779,-0.013 0,10.358 8.396,18.755 18.756,18.755 10.357,0 18.755,-8.397 18.755,-18.755 0,-1.177 -0.115,-2.329 -0.321,-3.446 1.928,0.426 4.354,0.977 5.136,0.979 0.083,-0.002 0.149,-0.005 0.206,-0.024 0.051,-0.011 0.126,-0.054 0.129,-0.142 -0.031,-0.17 -0.188,-0.237 -0.505,-0.423"
         id="path4318"
         inkscape:connector-curvature="0" /></g><g
       style="fill:#005daa;fill-opacity:1"
       id="g4420"><g
         style="fill:#005daa;fill-opacity:1"
         id="g4393"><path
           id="path4360"
           d="m 34.857422,6.0117188 c -0.119,-0.004 -0.232891,0.014547 -0.337891,0.060547 -0.192,0.084 -0.329437,0.2361719 -0.398437,0.4511719 -0.025,0.075 -0.03606,0.1496563 -0.03906,0.2226563 -10e-4,0.053 0.0036,0.1042499 0.01563,0.15625 0.023,0.113 0.06323,0.234375 0.115235,0.359375 -0.193,0.052 -0.36286,0.1267031 -0.50586,0.2207031 -0.148,0.099 -0.2505,0.2389687 -0.3125,0.4179687 -0.039,0.123 -0.0605,0.2386563 -0.0625,0.3476563 -0.003,0.157 0.02956,0.3005937 0.101563,0.4335937 0.122,0.222 0.354359,0.3890469 0.693359,0.4980469 0.143,0.049 0.270813,0.073172 0.382813,0.076172 0.035,10e-4 0.06661,0.00105 0.09961,-0.00195 0.131,-0.014 0.263438,-0.048703 0.398437,-0.095703 l 0.0059,-0.00195 0.130859,0.3261719 0.763672,0.2539062 -0.351562,-0.8457031 c 0.138,-0.083 0.254421,-0.1931719 0.357421,-0.3261719 0.103001,-0.139 0.192485,-0.3087187 0.271485,-0.5117187 l 0.0078,-0.017578 -0.564453,-0.1855468 -0.0078,0.015625 c -0.079,0.215 -0.182641,0.3689375 -0.306641,0.4609375 l -0.304736,-0.736335 c 0.037,-0.01 0.08191,-0.023062 0.128906,-0.039063 0.054,-0.017 0.09595,-0.031016 0.126953,-0.041016 0.127,-0.041 0.230453,-0.096062 0.314453,-0.1640625 0.086,-0.067 0.146547,-0.1594375 0.185547,-0.2734375 0.026,-0.081 0.04197,-0.1632343 0.04297,-0.2402344 0.002,-0.125 -0.02484,-0.244375 -0.08984,-0.359375 -0.101,-0.187 -0.277531,-0.3203906 -0.519531,-0.4003906 -0.121,-0.039 -0.232797,-0.059547 -0.341797,-0.060547 z m 0.08398,0.5527343 c 0.029,0 0.06075,0.00462 0.09375,0.015625 0.074,0.025 0.124344,0.064047 0.152344,0.1230469 0.018,0.035 0.02639,0.072375 0.02539,0.109375 0,0.025 -0.0066,0.052125 -0.01563,0.078125 -0.016,0.046 -0.04194,0.080328 -0.08594,0.1113281 -0.043,0.031 -0.09811,0.055266 -0.162109,0.072266 -0.02,0.009 -0.04317,0.017391 -0.07617,0.025391 -0.024,0.008 -0.04445,0.011625 -0.06445,0.015625 -0.043,-0.099 -0.07189,-0.1754688 -0.08789,-0.2304688 -0.009,-0.032 -0.01172,-0.059937 -0.01172,-0.085937 0.001,-0.023 0.0047,-0.045453 0.01172,-0.064453 0.022,-0.07 0.06214,-0.1184844 0.119141,-0.1464844 0.029,-0.017 0.06256,-0.024437 0.101562,-0.023437 z m -0.523437,1.171875 0.367187,0.8828125 c -0.086,0.036 -0.163281,0.053594 -0.238281,0.058594 l -0.04687,0 c -0.064,-0.002 -0.132125,-0.014109 -0.203125,-0.037109 -0.129,-0.042 -0.223203,-0.11375 -0.283203,-0.21875 -0.039,-0.067 -0.05964,-0.1369375 -0.05664,-0.2109375 10e-4,-0.041 0.0085,-0.084906 0.02148,-0.1289063 0.032,-0.096 0.0843,-0.1697499 0.154296,-0.21875 0.068,-0.049 0.163157,-0.090953 0.285157,-0.1269531 z"
           style="fill:#005daa;fill-opacity:1"
           inkscape:connector-curvature="0" /><path
           id="path4354"
           d="m 28.522,6.441 1.259,1.922 0.593,0 0,-3.234 -0.669,0 0,1.916 -1.259,-1.916 -0.593,0 0,3.234 0.669,0 0,-1.922 z"
           style="fill:#005daa;fill-opacity:1"
           inkscape:connector-curvature="0" /><path
           id="path4352"
           d="m 44.912,16.636 1.186,1.803 0.496,-0.325 -0.828,-1.259 0.619,-0.407 0.704,1.072 0.495,-0.325 -0.704,-1.072 0.597,-0.392 0.827,1.258 0.495,-0.326 -1.194,-1.818 -2.702,1.775 0.009,0.016 z"
           style="fill:#005daa;fill-opacity:1"
           inkscape:connector-curvature="0" /><path
           id="path4350"
           d="m 43.019531,10.439453 c -0.032,0 -0.06075,-9.4e-5 -0.09375,0.0039 -0.199,0.012 -0.373484,0.08031 -0.521484,0.195313 -0.146,0.115 -0.3335,0.307219 -0.5625,0.574219 -0.227,0.267 -0.386563,0.479625 -0.476563,0.640625 -0.078,0.139 -0.117187,0.29489 -0.117187,0.46289 0,0.026 0.0019,0.05594 0.0059,0.08594 0.013,0.167 0.05686,0.320937 0.13086,0.460937 0.072,0.14 0.178406,0.270719 0.316406,0.386719 0.139,0.12 0.279641,0.203906 0.43164,0.253906 0.118001,0.038 0.243,0.05859 0.375,0.05859 0.034,0 0.06561,-9.06e-4 0.09961,-0.0039 0.207,-0.014 0.385297,-0.07936 0.529297,-0.19336 0.144,-0.116 0.32864,-0.305265 0.55664,-0.572265 0.231,-0.269 0.390469,-0.484578 0.480469,-0.642578 0.073,-0.134 0.111328,-0.283313 0.111328,-0.445313 0,-0.034 -0.0019,-0.06947 -0.0059,-0.105469 -0.014,-0.167 -0.05886,-0.321937 -0.130859,-0.460937 -0.07,-0.141 -0.1765,-0.269719 -0.3125,-0.386719 C 43.695937,10.633953 43.554297,10.55 43.404297,10.5 c -0.122,-0.042 -0.249766,-0.06055 -0.384766,-0.06055 z m 0.08789,0.625 c 0.046,0 0.09453,0.0084 0.144531,0.02344 0.07,0.024 0.136219,0.06028 0.199219,0.113281 0.126,0.109 0.189406,0.235859 0.191406,0.380859 l 0,0.02149 c 0,0.04 -0.0037,0.07823 -0.01367,0.115234 -0.012,0.042 -0.03345,0.09053 -0.06445,0.144531 -0.029,0.054 -0.07476,0.120266 -0.134765,0.197266 -0.061,0.078 -0.141141,0.177828 -0.244141,0.298828 -0.101,0.116 -0.185906,0.214156 -0.253906,0.285156 -0.069,0.074 -0.125829,0.128016 -0.173829,0.166016 -0.049,0.038 -0.09672,0.06594 -0.136718,0.08594 -0.04,0.018 -0.08286,0.02816 -0.13086,0.03516 -0.023,0.003 -0.04831,0.0039 -0.07031,0.0039 -0.117,0 -0.227984,-0.04181 -0.333984,-0.132813 -0.064,-0.055 -0.111485,-0.11564 -0.146485,-0.18164 -0.031,-0.068 -0.04883,-0.134172 -0.04883,-0.201172 l 0,-0.02344 c 0,-0.039 0.0046,-0.07733 0.01563,-0.111328 0.012,-0.041 0.03145,-0.08848 0.06445,-0.146484 0.031,-0.054 0.07677,-0.120313 0.134766,-0.195313 0.061,-0.077 0.142094,-0.173875 0.246093,-0.296875 0.105,-0.122 0.19086,-0.222015 0.25586,-0.291015 0.067,-0.071 0.123781,-0.125063 0.175781,-0.164063 0.048,-0.04 0.09277,-0.06794 0.134766,-0.08594 0.042,-0.018 0.082,-0.03016 0.125,-0.03516 0.02,-0.004 0.04345,-0.0059 0.06445,-0.0059 z"
           style="fill:#005daa;fill-opacity:1"
           inkscape:connector-curvature="0" /><path
           id="path4346"
           d="m 39.427,9.961 0.905,0.559 -0.7,1.139 0.014,0.01 0.554,0.341 1.694,-2.753 -0.568,-0.35 -0.686,1.112 -0.907,-0.558 0.688,-1.113 -0.57,-0.351 -1.695,2.752 0.57,0.353 0.701,-1.141 z"
           style="fill:#005daa;fill-opacity:1"
           inkscape:connector-curvature="0" /><path
           id="path4344"
           d="m 43.915,15.419 0.013,-0.006 3.132,-1.316 -0.46,-0.524 -1.956,0.872 1.109,-1.831 -0.459,-0.521 -1.708,2.95 0.329,0.376 z"
           style="fill:#005daa;fill-opacity:1"
           inkscape:connector-curvature="0" /><path
           id="path4342"
           d="m 25.640625,5.265625 c -0.061,0 -0.122547,0.00372 -0.185547,0.011719 -0.183,0.022 -0.339516,0.072391 -0.478516,0.1503906 -0.137,0.077 -0.259281,0.1795 -0.363281,0.3125 -0.124,0.155 -0.192031,0.3305781 -0.207031,0.5175781 -0.005,0.046 -0.0059,0.095391 -0.0059,0.1503906 0,0.17 0.01678,0.3863438 0.05078,0.6523438 0.042,0.348 0.09334,0.6081562 0.152344,0.7851562 0.06,0.177 0.169125,0.327125 0.328125,0.453125 0.132,0.103 0.275687,0.1728438 0.429687,0.2148438 0.099,0.027 0.202453,0.039063 0.314453,0.039063 0.059,0 0.120594,-0.00377 0.183594,-0.00977 0.183,-0.023 0.339516,-0.073391 0.478516,-0.1503907 0.137,-0.077 0.257328,-0.1824531 0.361328,-0.3144531 0.127,-0.162 0.19889,-0.3364844 0.21289,-0.5214844 0.002,-0.042 0.0059,-0.084766 0.0059,-0.1347656 0,-0.17 -0.01978,-0.3911094 -0.05078,-0.6621094 -0.045,-0.351 -0.09539,-0.6111093 -0.150391,-0.7871094 -0.059,-0.177 -0.170938,-0.3261718 -0.335938,-0.4511718 -0.133,-0.103 -0.277734,-0.1747969 -0.427734,-0.2167969 -0.1,-0.026 -0.2035,-0.039063 -0.3125,-0.039063 z m -0.0293,0.5957031 c 0.128,0 0.235172,0.039141 0.326172,0.1191407 0.037,0.032 0.06684,0.067469 0.08984,0.1054687 0.025,0.038 0.04741,0.083578 0.06641,0.1425781 0.018,0.058 0.03578,0.1354219 0.05078,0.2324219 0.018,0.098 0.03664,0.2258125 0.05664,0.3828125 0.019,0.155 0.03106,0.2808594 0.03906,0.3808594 0.006,0.062 0.0078,0.1199687 0.0078,0.1679687 0,0.027 4.7e-5,0.052219 -0.002,0.074219 -0.005,0.062 -0.01239,0.1102968 -0.02539,0.1542969 -0.014,0.042 -0.03645,0.083094 -0.06445,0.1210937 -0.083,0.121 -0.204141,0.1909375 -0.369141,0.2109375 -0.027,0.003 -0.05608,0.00586 -0.08008,0.00586 -0.054,0 -0.10239,-0.00653 -0.15039,-0.019531 -0.072,-0.021 -0.132594,-0.053609 -0.183594,-0.099609 -0.037,-0.03 -0.06589,-0.063609 -0.08789,-0.099609 -0.021,-0.036 -0.0425,-0.084484 -0.0625,-0.1464844 -0.021,-0.061 -0.03869,-0.139375 -0.05469,-0.234375 -0.017,-0.093 -0.03369,-0.2218594 -0.05469,-0.3808594 -0.021,-0.162 -0.03301,-0.2897187 -0.04102,-0.3867187 -0.005,-0.061 -0.0078,-0.1150625 -0.0078,-0.1640625 10e-4,-0.027 0.0019,-0.052219 0.0039,-0.074219 0.005,-0.064 0.01334,-0.1162031 0.02734,-0.1582031 0.014,-0.042 0.03359,-0.082187 0.05859,-0.1171875 0.036,-0.056 0.08834,-0.1026719 0.152344,-0.1386719 0.064,-0.038 0.139656,-0.062266 0.222656,-0.072266 0.026,-0.002 0.05403,-0.00586 0.08203,-0.00586 z"
           style="fill:#005daa;fill-opacity:1"
           inkscape:connector-curvature="0" /><path
           id="path4338"
           d="m 12.060547,12.267578 c -0.129,0.007 -0.258672,0.04247 -0.388672,0.105469 -0.127,0.064 -0.245422,0.159297 -0.357422,0.279297 l -0.869141,0.951172 2.386719,2.183593 0.451172,-0.492187 -0.939453,-0.863281 0.287109,-0.314453 1.367188,0.394531 0.0098,-0.0098 0.513672,-0.560547 -1.513672,-0.402344 c 0.044,-0.111 0.06445,-0.225703 0.06445,-0.345703 0,-0.054 -0.0047,-0.107109 -0.01367,-0.162109 -0.03,-0.184 -0.12711,-0.351094 -0.28711,-0.496094 -0.1,-0.092 -0.212031,-0.163984 -0.332031,-0.208984 -0.104,-0.041 -0.215125,-0.05859 -0.328125,-0.05859 -0.017,0 -0.03278,-10e-4 -0.05078,0 z m -0.03711,0.652344 c 0.012,0 0.02611,0 0.03711,0 0.096,0 0.179719,0.03337 0.261719,0.109375 0.09,0.082 0.134765,0.176109 0.134765,0.287109 0,0.111 -0.04476,0.2145 -0.134765,0.3125 l -0.388672,0.425782 -0.59961,-0.546876 0.392578,-0.427734 c 0.089,-0.097 0.186875,-0.148156 0.296876,-0.160156 z"
           style="fill:#005daa;fill-opacity:1"
           inkscape:connector-curvature="0" /><path
           id="path4334"
           d="m 9.7324219,15.105469 c -0.064,0 -0.1341719,0.01034 -0.2011719,0.02734 -0.238,0.061 -0.4421875,0.228141 -0.6171875,0.494141 l -0.7207031,1.105469 2.7109376,1.769531 0.751953,-1.154297 c 0.135,-0.207 0.203125,-0.411234 0.203125,-0.615234 0,-0.046 -0.0028,-0.08877 -0.0098,-0.134766 -0.038,-0.246 -0.181734,-0.449328 -0.427734,-0.611328 -0.149,-0.096 -0.289734,-0.144531 -0.427734,-0.144531 -0.016,0 -0.02897,-4.7e-5 -0.04297,0.002 -0.135,0.01 -0.255281,0.04447 -0.363281,0.105469 10e-4,-0.014 0,-0.02797 0,-0.04297 0,-0.091 -0.0225,-0.191922 -0.0625,-0.294922 -0.051,-0.136 -0.14611,-0.248844 -0.28711,-0.339844 -0.166,-0.111 -0.3348591,-0.166015 -0.5058591,-0.166015 z m -0.025391,0.679687 c 0.063,0 0.1274532,0.0205 0.1894532,0.0625 0.091,0.059 0.1442029,0.13261 0.1582039,0.22461 0.004,0.016 0.0059,0.03473 0.0059,0.05273 0.001,0.077 -0.02794,0.16 -0.085938,0.25 L 9.6445715,16.878902 9.0586341,16.49609 9.3867591,15.99023 c 0.071,-0.109 0.1531406,-0.171359 0.2441406,-0.193359 0.026,-0.008 0.050172,-0.01172 0.076172,-0.01172 z m 1.1152351,0.677735 c 0.07,0 0.140984,0.02336 0.208984,0.06836 0.093,0.059 0.146922,0.136375 0.169922,0.234375 0.006,0.022 0.0098,0.04831 0.0098,0.07031 0,0.076 -0.02698,0.156234 -0.08399,0.240234 l -0.351562,0.541016 -0.63086,-0.410157 0.353516,-0.539062 c 0.071,-0.112 0.154,-0.177266 0.25,-0.197266 l 0.002,0 c 0.023,-0.004 0.04727,-0.0078 0.07227,-0.0078 z"
           style="fill:#005daa;fill-opacity:1"
           inkscape:connector-curvature="0" /><path
           id="path4328"
           d="m 15.1,13.437 0.494,-0.423 -2.103,-2.458 -0.509,0.434 2.104,2.46 0.014,-0.013 z"
           style="fill:#005daa;fill-opacity:1"
           inkscape:connector-curvature="0" /><path
           id="path4326"
           d="M 22.135,6.61 22.838,9.156 23.482,8.981 22.78,6.434 23.598,6.208 23.438,5.638 21.161,6.265 21.317,6.836 22.135,6.61 Z"
           style="fill:#005daa;fill-opacity:1"
           inkscape:connector-curvature="0" /><path
           id="path4324"
           d="m 15.432,11.075 c 0.192,0.292 0.356,0.504 0.487,0.635 0.134,0.131 0.298,0.218 0.495,0.259 0.082,0.016 0.164,0.024 0.243,0.024 0.242,0 0.475,-0.074 0.693,-0.219 0.308,-0.204 0.494,-0.479 0.558,-0.82 0.014,-0.063 0.02,-0.126 0.02,-0.188 0,-0.095 -0.015,-0.19 -0.044,-0.282 -0.047,-0.154 -0.138,-0.328 -0.269,-0.528 l -0.265,-0.394 -1.035,0.688 0.31,0.464 0.478,-0.318 0.054,0.079 c 0.046,0.068 0.078,0.14 0.103,0.215 0.014,0.05 0.022,0.1 0.022,0.148 0,0.022 -0.003,0.045 -0.006,0.066 -0.025,0.157 -0.108,0.281 -0.253,0.377 -0.1,0.066 -0.199,0.098 -0.296,0.098 -0.04,0 -0.08,-0.004 -0.12,-0.014 C 16.561,11.353 16.521,11.336 16.484,11.314 16.45,11.293 16.408,11.257 16.363,11.209 16.316,11.161 16.265,11.1 16.21,11.024 16.151,10.946 16.079,10.84 15.99,10.705 15.899,10.572 15.83,10.46 15.779,10.378 15.728,10.296 15.693,10.225 15.669,10.166 15.645,10.109 15.629,10.058 15.623,10.013 15.619,9.993 15.618,9.97 15.618,9.95 c 0,-0.022 0.002,-0.044 0.005,-0.066 0.021,-0.146 0.098,-0.263 0.235,-0.355 0.098,-0.064 0.188,-0.099 0.274,-0.108 0.019,-0.004 0.043,-0.004 0.068,-0.004 0.074,0 0.164,0.01 0.268,0.032 L 16.484,9.451 16.615,8.826 16.598,8.823 C 16.476,8.799 16.363,8.786 16.257,8.786 c -0.074,0 -0.147,0.006 -0.213,0.019 -0.159,0.031 -0.332,0.108 -0.516,0.23 -0.293,0.194 -0.473,0.458 -0.541,0.789 -0.016,0.069 -0.022,0.14 -0.022,0.208 0,0.12 0.022,0.235 0.068,0.346 0.071,0.172 0.201,0.405 0.399,0.697"
           style="fill:#005daa;fill-opacity:1"
           inkscape:connector-curvature="0" /><path
           id="path4322"
           d="m 19.729,10.377 -0.55,-1.221 0.969,-0.436 0.553,1.221 0.017,-0.007 0.592,-0.268 -1.331,-2.949 -0.611,0.275 0.54,1.191 -0.97,0.438 -0.539,-1.192 -0.609,0.275 1.332,2.95 0.607,-0.277 z"
           style="fill:#005daa;fill-opacity:1"
           inkscape:connector-curvature="0" /></g><g
         style="fill:#005daa;fill-opacity:1"
         id="g4412"><path
           id="path4384"
           d="m 23.503,48.367 -0.656,-0.159 -0.77,3.222 0.018,0.005 2.085,0.498 0.141,-0.591 -1.445,-0.344 0.627,-2.631 z"
           style="fill:#005daa;fill-opacity:1"
           inkscape:connector-curvature="0" /><path
           id="path4382"
           d="m 35.919,47.609 0.663,1.847 -1.858,-1.421 -0.563,0.203 1.112,3.117 0.638,-0.228 -0.662,-1.853 1.856,1.427 0.011,-0.005 0.555,-0.199 -1.114,-3.116 -0.638,0.228 z"
           style="fill:#005daa;fill-opacity:1"
           inkscape:connector-curvature="0" /><path
           id="path4380"
           d="m 20.576172,47.380859 -2.371094,2.607422 0.652344,0.267578 0.402344,-0.46289 1.052734,0.43164 -0.04102,0.607422 0.01367,0.0078 0.642578,0.261718 0.132813,-3.52539 -0.484375,-0.195313 z M 20.4375,48.449219 20.363281,49.625 19.654297,49.335938 20.4375,48.449219 Z"
           style="fill:#005daa;fill-opacity:1"
           inkscape:connector-curvature="0" /><path
           id="path4376"
           d="m 32.335938,48.625 c -0.082,0 -0.165907,0.0074 -0.253907,0.02344 -0.181,0.031 -0.336656,0.08978 -0.472656,0.175781 -0.134,0.086 -0.253609,0.19789 -0.349609,0.33789 -0.117,0.167 -0.177641,0.348016 -0.181641,0.541016 l 0,0.03516 c 0,0.187 0.02884,0.44825 0.08984,0.78125 0.061,0.355 0.126312,0.619875 0.195312,0.796875 0.068,0.177 0.189469,0.326313 0.355469,0.445313 0.139,0.098 0.289313,0.165172 0.445312,0.201172 0.08,0.016 0.162047,0.02344 0.248047,0.02344 0.082,0 0.16986,-0.0065 0.25586,-0.02148 0.182,-0.033 0.337656,-0.09273 0.472656,-0.177735 0.132,-0.085 0.249703,-0.19989 0.345703,-0.33789 0.121,-0.173 0.186453,-0.355922 0.189453,-0.544922 -10e-4,-0.009 0,-0.01634 0,-0.02734 0,-0.184 -0.0338,-0.447156 -0.0918,-0.785156 -0.063,-0.357 -0.127359,-0.620875 -0.193359,-0.796875 -0.07,-0.177 -0.189281,-0.32736 -0.363281,-0.44336 -0.139,-0.1 -0.287406,-0.164218 -0.441406,-0.199218 -0.081,-0.019 -0.162,-0.02734 -0.25,-0.02734 z m -0.0332,0.609375 c 0.115,0.002 0.216688,0.03642 0.304688,0.107422 0.039,0.029 0.07161,0.06356 0.09961,0.101562 0.025,0.037 0.04931,0.08458 0.07031,0.142579 0.025,0.059 0.04831,0.137328 0.07031,0.236328 0.021,0.098 0.04622,0.227718 0.07422,0.386718 0.028,0.158 0.04755,0.287625 0.06055,0.390625 0.013,0.092 0.01953,0.167516 0.01953,0.228516 l 0,0.01563 -0.0039,0 c 0,0.063 -0.0055,0.115156 -0.01953,0.160156 -0.011,0.044 -0.02769,0.08795 -0.05469,0.126953 -0.077,0.129 -0.197328,0.205328 -0.361328,0.236329 -0.039,0.005 -0.07533,0.0098 -0.111328,0.0098 -0.042,0 -0.08109,-0.0047 -0.121094,-0.01367 -0.074,-0.017 -0.138453,-0.0468 -0.189453,-0.0918 -0.04,-0.029 -0.06975,-0.06166 -0.09375,-0.09766 -0.026,-0.035 -0.04927,-0.08744 -0.07227,-0.148437 -0.022,-0.063 -0.04736,-0.141329 -0.06836,-0.236329 -0.021,-0.095 -0.04722,-0.223718 -0.07422,-0.386718 -0.028,-0.164 -0.0495,-0.293578 -0.0625,-0.392578 -0.012,-0.094 -0.01758,-0.168469 -0.01758,-0.230469 l 0,-0.01367 c 0.002,-0.064 0.0085,-0.120062 0.01953,-0.164063 0.012,-0.042 0.02873,-0.08319 0.05273,-0.117187 0.035,-0.063 0.08348,-0.11425 0.146484,-0.15625 0.063,-0.042 0.133797,-0.06698 0.216797,-0.08398 0.04,-0.005 0.07823,-0.0098 0.115234,-0.0098 z"
           style="fill:#005daa;fill-opacity:1"
           inkscape:connector-curvature="0" /><path
           id="path4372"
           d="m 29.173,48.98 0.158,3.307 0.019,-10e-4 0.656,-0.033 -0.159,-3.305 -0.674,0.032 z"
           style="fill:#005daa;fill-opacity:1"
           inkscape:connector-curvature="0" /><path
           id="path4370"
           d="m 25.740234,48.830078 -0.263672,3.302734 1.386719,0.109376 c 0.042,0.004 0.08209,0.0039 0.121094,0.0039 l 0.002,0 c 0.248,0 0.460813,-0.06427 0.632813,-0.197266 0.201,-0.153 0.312937,-0.384594 0.335937,-0.683594 0.003,-0.035 0.0059,-0.06275 0.0059,-0.09375 0,-0.156 -0.03352,-0.28939 -0.103516,-0.40039 -0.072,-0.115 -0.164484,-0.205438 -0.271484,-0.273438 0.097,-0.044 0.186484,-0.11675 0.271484,-0.21875 0.098,-0.115 0.152062,-0.257781 0.164062,-0.425781 0.002,-0.035 0.002,-0.06756 0.002,-0.101563 0,-0.237999 -0.07075,-0.441515 -0.21875,-0.603515 -0.168,-0.182 -0.413329,-0.284594 -0.736329,-0.308594 l -1.328125,-0.109375 z m 0.625,0.660156 0.607422,0.04687 c 0.13,0.012 0.226016,0.05109 0.291016,0.121094 0.057,0.063 0.08594,0.138422 0.08594,0.232422 0,0.012 4.7e-5,0.02411 -0.002,0.03711 -0.008,0.108 -0.05,0.190954 -0.125,0.251954 -0.065,0.05 -0.146906,0.07812 -0.253906,0.07812 -0.018,0 -0.03473,-9.53e-4 -0.05273,-0.002 l -0.605469,-0.05078 0.05469,-0.714844 z m -0.105468,1.326172 0.648437,0.05078 c 0.135,0.01 0.230922,0.05291 0.294922,0.128906 0.057,0.068 0.08398,0.149093 0.08398,0.246094 0,0.011 -9.53e-4,0.02606 -0.002,0.03906 -0.01,0.113 -0.05195,0.199578 -0.126953,0.267578 -0.065,0.056 -0.149719,0.08594 -0.261719,0.08594 -0.016,0 -0.03178,0.001 -0.05078,0 l -0.648437,-0.05469 0.0625,-0.763672 z"
           style="fill:#005daa;fill-opacity:1"
           inkscape:connector-curvature="0" /></g></g><g
       id="g4450"><path
         style="fill:#ffffff"
         d="m 52.081,26.013 c -1.225,0.002 -6.856,-1.459 -7.656,-1.462 -1.25,0.008 -4.063,1.552 -5.524,2.501 -0.425,0.278 -0.858,0.529 -1.281,0.75 0.107,0.006 0.217,0.015 0.321,0.029 0.889,0.106 1.677,0.45 2.314,0.917 0.821,0.612 1.67,1.362 2.18,1.462 0.024,0.002 0.052,0.004 0.081,0.008 l 0.002,0 c 0.726,0.068 2.803,0.582 2.738,1.811 0,0 -1.446,-0.437 -3.18,-0.14 -0.683,0.146 -1.679,0.238 -3.187,0.718 -1.428,0.45 -5.153,1.862 -8.065,1.863 -2.216,-0.002 -6.693,-1.277 -9.277,-1.496 -0.154,-0.013 -0.307,-0.021 -0.46,-0.021 -1.967,-0.002 -3.656,1.032 -4.501,1.043 -0.762,0 -2.098,-0.13 -3.406,-1.1 -0.995,-0.744 -1.73,-1.831 -1.74,-2.636 -0.002,-0.269 0.094,-0.519 0.304,-0.684 0.148,-0.113 0.356,-0.136 0.63,-0.139 1.014,10e-4 3.021,0.441 5.402,0.44 1.416,0 2.957,-0.154 4.486,-0.647 0.355,-0.114 1.423,-0.363 2.111,-0.536 0.182,0.124 0.374,0.258 0.588,0.406 0.021,0.015 0.043,0.022 0.065,0.022 0.039,0 0.075,-0.019 0.099,-0.05 0.038,-0.055 0.023,-0.128 -0.028,-0.166 -1.324,-0.922 -1.953,-1.434 -4.168,-1.428 -1.411,0 -3.475,0.196 -6.817,0.597 -2.169,0.259 -3.844,0.36 -5.135,0.36 C 6.825,28.436 5.735,28.154 5.202,27.874 4.873,27.701 4.752,27.538 4.709,27.44 c 0.774,-0.048 4.641,-0.319 8.057,-1.075 3.877,-0.862 9.948,-3.288 12.776,-3.283 1.054,-0.007 2.881,1.08 4.691,2.299 1.822,1.215 3.64,2.554 4.8,3.04 0.06,0.024 0.129,-0.003 0.153,-0.063 0.026,-0.06 -0.003,-0.129 -0.063,-0.155 -0.664,-0.278 -1.587,-0.87 -2.611,-1.561 1.405,-0.665 6.279,-3.591 9.768,-3.589 1.659,-0.003 6.567,1.394 8.043,2.016 0.703,0.296 1.195,0.521 1.507,0.69 0.155,0.083 0.268,0.151 0.334,0.203 0.021,0.015 0.038,0.031 0.049,0.043 -0.031,0.005 -0.075,0.008 -0.132,0.008"
         id="path15"
         inkscape:connector-curvature="0" /><path
         clip-path="url(#SVGID_2_)"
         d="m 42.076,31.889 c 1.733,-0.297 3.18,0.14 3.18,0.14 0.068,-1.281 -2.188,-1.785 -2.821,-1.819 0,0 0.327,0.68 -1.436,0.814 0,0 -0.823,-0.019 -1.16,0.283 0,0 1.622,-0.124 2.192,0.51 l 0.045,0.072 z"
         id="path17"
         inkscape:connector-curvature="0"
         style="fill:#fdb913" /><path
         style="fill:#005daa"
         d="m 39.29,30.295 c 0.268,0 0.483,-0.31 0.483,-0.31 0,0 -0.216,-0.308 -0.483,-0.308 -0.267,0 -0.482,0.308 -0.482,0.308 0,0 0.215,0.31 0.482,0.31"
         id="path4320"
         inkscape:connector-curvature="0" /></g></g></svg>