<svg xmlns="http://www.w3.org/2000/svg" id="Layer_1" version="1.1" viewBox="181.01 181.02 1637.98 1637.96" width="316.22776601683796" height="316.22776601683796">
  <!-- Generator: Adobe Illustrator 29.6.1, SVG Export Plug-In . SVG Version: 2.1.1 Build 9)  -->
  <defs>
    <style>
      .st0 {
        fill: none;
      }

      .st1 {
        fill: #fff;
      }

      .st2 {
        fill: #009b48;
      }
    </style>
  </defs>
  <path d="M999.97,181.02c-451.58,0-818.96,367.41-818.96,819.02s367.38,818.94,818.96,818.94,819.02-367.37,819.02-818.94S1451.55,181.02,999.97,181.02Z"/>
  <path class="st2" d="M999.98,216.7c-431.92,0-783.28,351.41-783.28,783.35s351.37,783.25,783.28,783.25,783.33-351.35,783.33-783.25S1431.88,216.7,999.98,216.7Z"/>
  <path class="st1" d="M999.99,483.63c-284.71,0-516.34,231.69-516.34,516.37s231.63,516.38,516.34,516.38,516.35-231.61,516.35-516.38-231.61-516.37-516.35-516.37Z"/>
  <g>
    <path class="st0" d="M1000,483.63c-284.71,0-516.34,231.69-516.34,516.37s231.63,516.38,516.34,516.38,516.35-231.61,516.35-516.38-231.61-516.37-516.35-516.37Z"/>
    <path d="M1000,465.81c-294.53,0-534.17,239.7-534.17,534.19s239.64,534.19,534.17,534.19,534.18-239.62,534.18-534.19-239.63-534.19-534.18-534.19ZM1000,1516.38c-284.71,0-516.34-231.61-516.34-516.38s231.63-516.37,516.34-516.37,516.35,231.69,516.35,516.37-231.61,516.38-516.35,516.38Z"/>
  </g>
  <g>
    <g>
      <path class="st0" d="M1026.96,1646.17c12.02-.58,14.35-13.8,13.93-22.63-.44-9.06-5.58-17.9-15.83-17.43-10.33.56-14.56,9.81-14.14,18.86.44,8.89,4.04,21.8,16.04,21.2Z"/>
      <path class="st0" d="M941.19,1604.49c-10.25-.9-15.74,7.71-16.51,16.77-.78,8.85,1.02,22.16,13,23.21,11.99,1.05,16.08-11.78,16.83-20.62.83-9.01-3.09-18.49-13.32-19.37Z"/>
      <path class="st0" d="M936.5,1658.32c-14.94-1.33-17.4,12.49-18.34,23.23-.9,10.45,2.3,21.85,14.26,22.92,11.97,1.07,17.13-9.66,18.02-20.07.96-10.77.94-24.76-13.94-26.08Z"/>
      <path class="st0" d="M1027.65,1660.08c-14.96.76-15.53,14.77-15.03,25.55.52,10.47,5.26,21.4,17.28,20.8,12-.56,15.63-11.93,15.13-22.37-.51-10.76-2.42-24.65-17.38-23.98Z"/>
      <path class="st0" d="M1115.96,1635.66c11.79-2.28,12.28-15.65,10.59-24.38-1.66-8.92-7.96-16.95-18.11-15.02-10.07,1.92-12.99,11.69-11.28,20.62,1.61,8.72,6.98,20.97,18.8,18.78Z"/>
      <path class="st0" d="M1118.53,1649.34c-14.69,2.77-13.33,16.76-11.31,27.37,2,10.25,8.16,20.38,19.97,18.16,11.79-2.24,13.84-13.99,11.9-24.25-2.02-10.59-5.82-24.04-20.57-21.28Z"/>
      <path class="st1" d="M848.22,1594.23l-3.18,15,20.27-8.23-21.1,101.15,15.67,3.26,24.7-118.4-13.47-2.78c-5.58,2.93-18.62,9.08-22.89,9.99Z"/>
      <path class="st1" d="M942.22,1592.86c-18.94-1.61-31.91,8.59-33.56,27.55-1.19,13.7,4.51,26.06,18.52,30.12l-.02.13c-17.87.21-23.59,13.7-24.96,29.32-1.91,21.73,8.01,36.08,29.03,37.85,21.03,1.88,33.27-10.52,35.22-32.16,1.35-15.67-1.95-29.97-19.48-33.24v-.2c14.49-1.51,22.31-12.77,23.48-26.44,1.69-18.88-9.32-31.31-28.22-32.94ZM950.44,1684.4c-.9,10.41-6.06,21.14-18.02,20.07-11.96-1.07-15.16-12.46-14.26-22.92.94-10.74,3.4-24.56,18.34-23.23,14.88,1.32,14.9,15.31,13.94,26.08ZM954.5,1623.86c-.74,8.84-4.84,21.67-16.83,20.62-11.98-1.05-13.78-14.36-13-23.21.77-9.06,6.26-17.67,16.51-16.77,10.23.88,14.14,10.36,13.32,19.37Z"/>
      <path class="st1" d="M1037.24,1652.84l-.03-.15c14.15-3.49,20.35-15.67,19.7-29.43-.9-18.97-13.49-29.75-32.46-28.8-18.97.92-30.44,12.84-29.51,31.79.64,13.75,8.03,25.27,22.44,27.38v.22c-17.68,2.52-21.51,16.71-20.78,32.39,1.06,21.76,12.84,34.62,33.93,33.61,21.04-1.04,31.56-14.99,30.54-36.72-.8-15.71-6-29.44-23.83-30.28ZM1010.92,1624.97c-.42-9.05,3.81-18.3,14.14-18.86,10.26-.47,15.39,8.38,15.83,17.43.42,8.83-1.91,22.05-13.93,22.63-12,.6-15.6-12.31-16.04-21.2ZM1029.9,1706.43c-12.02.6-16.76-10.33-17.28-20.8-.5-10.77.07-24.79,15.03-25.55,14.95-.68,16.86,13.21,17.38,23.98.51,10.44-3.13,21.81-15.13,22.37Z"/>
      <path class="st1" d="M1154.81,1667.45c-2.95-15.39-9.99-28.24-27.78-26.65l-.06-.14c13.56-5.41,18.02-18.37,15.42-31.87-3.54-18.68-17.45-27.54-36.14-23.99-18.63,3.54-28.35,16.91-24.77,35.59,2.53,13.48,11.47,23.87,26.02,23.96v.17c-17.14,5.04-19,19.55-16.05,34.94,4.09,21.48,17.52,32.54,38.26,28.59,20.69-3.93,29.11-19.22,25.09-40.6ZM1097.15,1616.88c-1.7-8.93,1.22-18.71,11.28-20.62,10.15-1.93,16.45,6.1,18.11,15.02,1.69,8.73,1.2,22.11-10.59,24.38-11.82,2.19-17.19-10.06-18.8-18.78ZM1127.2,1694.86c-11.81,2.22-17.98-7.91-19.97-18.16-2.02-10.61-3.38-24.6,11.31-27.37,14.75-2.76,18.55,10.69,20.57,21.28,1.94,10.25-.11,22.01-11.9,24.25Z"/>
    </g>
    <g>
      <polygon class="st1" points="296.56 928.21 282.67 927.58 278.83 1009.75 292.75 1010.44 294.31 977.33 406.06 982.53 406.85 966.52 295.05 961.28 296.56 928.21"/>
      <polygon class="st1" points="298.84 836.64 352.14 847.39 343.37 890.66 290.03 879.84 286.86 895.55 410.23 920.59 413.39 904.89 357 893.46 365.79 850.2 422.16 861.65 425.36 845.94 302 820.9 298.84 836.64"/>
      <polygon class="st1" points="425.26 802.79 384.46 787.6 400.28 745.18 387.22 740.31 371.39 782.75 333.53 768.65 350.52 722.93 337.46 718.05 314.84 778.83 432.77 822.68 455.73 761 442.69 756.12 425.26 802.79"/>
      <path class="st1" d="M488.05,630.71l-8.88,13.99c20.66,13.31,14.22,26.74,11.59,30.88-6.63,10.42-15.11,17-41.19.49l-28.37-18.03c-18.23-11.61-19.22-15.94-20.11-17.15-1.21-1.32-5.17-10.06,1.93-21.2,1.78-2.83,6.99-8.4,12.13-9.04,5.16-.66,11.47,2.76,17.38,6.73l8.91-13.98c-19.78-14.38-35.79-13.2-49.15,7.79-13.26,20.91-13.12,39.57,16.9,58.64l29.99,19.05c41.21,26.13,54.98,6.39,63.39-6.84,4.38-6.92,19.43-30.62-14.53-51.33Z"/>
      <polygon class="st1" points="530.96 615.02 497.99 586.53 527.6 552.24 517.04 543.12 487.44 577.39 456.8 550.99 488.7 514.02 478.16 504.91 435.78 554.01 531.02 636.26 574.11 586.39 563.54 577.26 530.96 615.02"/>
      <polygon class="st1" points="589.42 553.63 515.02 470.1 503.02 480.78 586.72 574.68 633.15 533.3 623.89 522.94 589.42 553.63"/>
      <polygon class="st1" points="621.32 404.76 613.15 393.49 546.44 441.57 554.59 452.86 581.46 433.53 646.87 524.22 659.9 514.85 594.43 424.12 621.32 404.76"/>
      <polygon class="st1" points="638.44 379.3 700.58 488.76 714.53 480.85 652.37 371.4 638.44 379.3"/>
      <path class="st1" d="M776.23,411.13c9.4,22.7-3.58,30.06-8.08,31.98-11.37,4.82-22.12,5.36-34.13-23.05l-13.11-30.97c-8.41-19.94-6.74-24.01-6.77-25.5-.22-1.8,1.46-11.24,13.65-16.39,3.04-1.31,10.49-2.91,15.13-.55,4.61,2.44,7.89,8.82,10.47,15.44l15.28-6.42c-8.07-23.11-21.94-31.25-44.88-21.53-22.81,9.64-33.3,25.04-19.46,57.82l13.86,32.73c18.98,44.94,41.55,36.53,56.01,30.46,7.53-3.21,33.38-14.14,17.27-50.48l-15.24,6.47Z"/>
      <polygon class="st1" points="902.88 342.47 859.83 351.06 851.91 311.44 897.36 302.34 894.63 288.64 833.44 300.89 858.14 424.24 873.86 421.14 862.56 364.72 905.63 356.1 902.88 342.47"/>
      <path class="st1" d="M1011.35,319.24c-1.28-25.05-14.98-40.41-41.65-39.06-26.64,1.34-38.66,18.03-37.42,43.14l2.12,41.23c1.77,34.8,15.38,47.88,42.01,46.54,26.65-1.37,38.82-15.8,37.03-50.58l-2.08-41.27ZM975.71,397.66c-15.14.78-23.52-5.75-24.91-33.29l-2.18-42.45c-1.35-26.29,16.72-28.09,21.76-28.33,5.04-.28,23.18-.3,24.52,25.98l2.16,42.46c1.46,27.54-6.21,34.88-21.36,35.63Z"/>
      <path class="st1" d="M1085.98,284.11c-26.48-3.13-41.16,11.3-44.13,36.22l-4.83,41.07c-4.05,34.6,7.16,49.76,33.64,52.93,26.48,3.08,40.94-9.09,45.01-43.69l4.82-41.04c2.91-24.97-8.04-42.38-34.52-45.5ZM1104.25,327.16l-4.97,42.24c-3.17,27.37-11.97,33.34-27.04,31.58-15.04-1.79-22.22-9.66-19.01-36.99l4.99-42.28c3.03-26.12,21.17-24.85,26.2-24.3,5.03.62,22.93,3.58,19.84,29.75Z"/>
      <polygon class="st1" points="1226.93 316.65 1147.45 295.49 1143.85 308.96 1175.88 317.49 1147.02 425.61 1162.54 429.73 1191.33 321.59 1223.34 330.15 1226.93 316.65"/>
      <path class="st1" d="M1281.56,404.28l.36-.83c16.33,3.22,25.5-4.16,31.81-18.5.99-2.22,3.42-9.36,2.09-17.34-1.4-8.29-4.49-16.1-20.41-23.1l-37.46-16.58-50.84,115.1,36.95,16.34c13.11,5.74,35.88,12.4,48.91-17.09,6.99-15.8,4.14-28.87-11.41-38ZM1266.99,347.16l20.73,9.15c12.28,5.42,14.23,15.62,10.01,25.21-4.93,11.14-13.6,15.7-25.15,10.81l-21.35-9.46,15.76-35.7ZM1277.98,435.64c-3.74,8.47-14.23,17.16-29.84,10.25l-20.74-9.12,18.18-41.14,15.62,6.9c14.98,6.62,24.87,14.78,16.78,33.11Z"/>
      <path class="st1" d="M1390.59,396.04l-102.83,82.67,13.48,8.96,24.45-19.72,40.41,26.89-8.98,29.97,14.93,9.95,35.51-127.44-16.97-11.28ZM1370.21,480.82l-33.51-22.27,53.55-44.96.31.18-20.35,67.05Z"/>
      <polygon class="st1" points="1476.58 460.92 1464.66 450.24 1380.5 543.74 1426.74 585.34 1436.07 574.95 1401.73 544.09 1476.58 460.92"/>
      <polygon class="st1" points="1542.28 526.54 1531.84 514.34 1436.39 596.41 1476.95 643.58 1487.53 634.52 1457.42 599.48 1542.28 526.54"/>
      <path class="st1" d="M1572.51,729.31l-8.09-14.41c-21.54,11.82-30.24-.23-32.67-4.52-6.02-10.81-7.74-21.4,19.16-36.47l29.35-16.38c18.9-10.55,23.16-9.36,24.63-9.55,1.76-.38,11.3.24,17.77,11.82,1.64,2.89,4.05,10.08,2.16,14.93-1.87,4.86-7.85,8.81-14.19,12.15l8.13,14.46c22.03-10.57,28.63-25.23,16.45-46.94-12.07-21.63-28.55-30.38-59.6-13.07l-31.02,17.39c-42.58,23.8-31.77,45.25-24.13,58.95,4.01,7.15,17.71,31.66,52.05,11.63Z"/>
      <polygon class="st1" points="1565.86 774.65 1670.18 734.15 1664.37 719.24 1547.1 764.74 1569.59 822.73 1582.58 817.69 1565.86 774.65"/>
      <path class="st1" d="M1634.94,899.43l77.84-17.56-3.5-15.67-78.55,17.73c-26.86,6.08-35.49-.56-38.81-15.37-3.36-14.75,1.62-24.42,28.48-30.54l78.52-17.68-3.55-15.61-77.84,17.51c-34,7.68-44.58,23.27-38.69,49.29,5.82,26.02,22.13,35.53,56.11,27.89Z"/>
      <path class="st1" d="M1721.07,967.74l-2.17-40.9-125.65,6.6,2.11,40.36c.74,14.3,5.12,37.63,37.32,35.94,17.23-.92,27.61-9.3,28.74-27.36l.89-.06c4.51,16.01,15.23,20.87,30.91,20.03,2.44-.13,9.89-1.23,16.44-5.93,6.71-5.06,12.36-11.27,11.41-28.69ZM1631.78,993.4c-9.16.47-21.71-4.97-22.61-22.06l-1.2-22.61,44.91-2.33.91,17.02c.87,16.37-1.93,28.93-22.01,29.98ZM1689.07,986.54c-12.18.65-20.17-5.07-21.04-17.58l-1.17-23.35,38.99-2.03,1.18,22.65c.68,13.4-7.53,19.74-17.96,20.31Z"/>
    </g>
    <path class="st1" d="M768.21,1596.24c-9.29.02-35.8-1.02-55.09-5.03-13.25-25.09-14.17-56.3-33.27-71.62-21.7-17.4-42.21,2.07-57.15-10.59-19.58-16.59,1.76-35.33-10.8-45.77-12.53-10.48-27.15,13.77-46.93-2.52-15.12-12.39.36-36.07-20.6-54.34-18.48-16.08-49.34-11.4-76.37-19.99-7.46-18.31-13.2-44.15-14.81-53.29-1.56-9.14-14.24-24-27.29-22.81,9.77,32.39,20.14,66.98,9.65,95.19-5.63,15.14-7.86,21.42-5.61,23.18,2.27,1.78,61.17-17.95,89.54,5.85,17.5,14.72,15.93,36.1,11.15,42.73-4.83,6.65-17.29,19.8-10.58,25.37,11.79,9.72,15.48-4.91,43.52,18.51,27.97,23.37,14.24,29.64,25.91,39.52,6.64,5.62,17.42-9.01,23.09-14.92,5.65-5.93,26.45-11.3,44.02,3.33,28.49,23.7,19.53,85.11,21.69,87.05,2.12,1.89,7.96-1.35,21.77-9.61,25.94-15.37,61.77-11.29,95.41-7.45-1.12-13-18.03-22.88-27.27-22.8Z"/>
    <path class="st1" d="M1574.09,1310.28c-13.05-1.19-25.73,13.67-27.29,22.81-1.61,9.14-7.35,34.98-14.81,53.29-27.03,8.59-57.88,3.9-76.37,19.99-20.96,18.28-5.48,41.96-20.6,54.34-19.78,16.29-34.4-7.97-46.93,2.52-12.56,10.44,8.79,29.18-10.8,45.77-14.94,12.65-35.45-6.81-57.15,10.59-19.1,15.32-20.01,46.53-33.27,71.62-19.29,4.02-45.79,5.06-55.09,5.03-9.23-.08-26.14,9.8-27.27,22.8,33.64-3.84,69.48-7.92,95.41,7.45,13.81,8.26,19.65,11.5,21.77,9.61,2.16-1.94-6.81-63.35,21.69-87.05,17.58-14.63,38.38-9.26,44.02-3.33,5.67,5.91,16.45,20.54,23.09,14.92,11.67-9.88-2.07-16.15,25.91-39.52,28.03-23.41,31.72-8.79,43.52-18.51,6.71-5.56-5.75-18.72-10.58-25.37-4.78-6.63-6.35-28.01,11.15-42.73,28.37-23.81,87.27-4.08,89.54-5.85,2.25-1.77.02-8.05-5.61-23.18-10.49-28.22-.12-62.81,9.65-95.19Z"/>
  </g>
  <g>
    <path class="st2" d="M1419.14,1091.64c-7.94-15.07-18.65-27-31.83-35.47-16.71-10.74-37.87-16.2-62.89-16.23-2.33.07-46.03,1.69-101.62,23.8l-.17.07-.17.06c-5.45,2.04-54.12,19.94-83.86,19.94-2.31,0-14.47-.33-27.16-6.92-18.43-9.56-28.58-27.41-28.58-50.25v-.34c.03-1.54.52-15.4,8.37-29.42,10.88-19.42,30.66-30.13,55.7-30.16.17,0,.48,0,.91,0,6.64,0,29.8.53,48.98,7.31l.4.14h.03c1.7.59,21.58,7.04,63.49,7.04.44,0,43.07-.2,84.56-16.48,23.2-9.1,41.52-21.41,54.44-36.58,15.7-18.43,23.71-41.73,23.79-69.24v-.53s.01-.17.01-.17c.02-1.35,0-18.28-10-40.13-6.07-13.25-14.59-25.76-25.35-37.17-13.64-14.48-30.96-27.28-51.47-38.05l-.24-.13-.24-.14c-.71-.4-17.49-9.93-36.02-24.96-25.87-20.98-42.29-42.09-48.83-62.74-.81-1.98-6.29-14.48-19.41-26.7-18.81-17.52-44.11-26.5-75.2-26.67-1.65.04-29.89.92-57.17,15.84-35.73,19.53-53.86,54.12-53.88,102.78.04,2.87,1.03,66.7,9.17,103.34,1.14,4.61,6.08,25.27,6.12,36.53.01,1.38.05,11.34-1.53,22.91-2.56,18.83-7.84,32.08-16.16,40.51-6.36,6.45-14.33,9.88-23.06,9.92-.06,0-.13,0-.2,0-3.69,0-16.64-1.03-28.16-14.35-11.9-13.76-17.94-36.08-17.94-66.33v-.15c0-.35.24-36.04-3.57-78.65-4.92-54.9-14.18-96.23-26.8-119.52l-.03-.06-.03-.06c-.1-.19-11.24-20.93-28.43-41.16-14.35-16.89-35.94-37.03-57.3-37.03h-.17c-.85.01-12.07.31-27.39,6.19-20.94,8.04-39.45,22.26-55.02,42.29-1.28,1.92-4.88,7.15-10.76,14.3-18.1,22-40.06,40.43-65.27,54.76-19.48,11.08-67.55,39.62-93.29,65.55-10.98,11.26-39.43,47.08-39.43,77.48v.51c0,.87.05,9.09,3.17,20.23,4.26,15.24,11.99,28.63,22.97,39.8,10.88,11.06,24.98,19.84,41.91,26.08,21.12,7.79,46.87,11.74,76.56,11.74,1.92-.02,44.32-.54,70.7-5.88,3.16-.68,44.23-9.4,80.04-9.4h.71c1.38.07,13.9.71,26.75,6.48,8.5,3.82,15.43,9.06,20.57,15.59,6.73,8.53,10.14,18.77,10.14,30.42,0,1.69-.31,16.99-10.9,32.08-17.06,24.3-46.48,29.4-68.16,29.4h-.37c-1.6-.04-39.42-.83-61.89-2.81h-.15s-.15-.03-.15-.03c-.59-.06-59.32-6.16-102.42-6.18-1.82.04-42.83,1.36-74.81,26.65-3.4,3.2-35.09,34.11-35.09,73.3v.51c0,1.11.17,11.84,5.35,26.07,7.17,19.71,20.18,36.71,38.65,50.55,2.27,1.61,20.44,14.56,41.19,31.67,30.09,24.8,50.2,45.64,59.77,61.92l.45.77.37.81c.19.41,20.65,43.8,59.23,75.04l.12.1h.02c1.17.95,33.83,26.85,74.12,26.85.2,0,20.68-.22,40.25-10.47,10.65-5.58,19.07-13.12,25.02-22.43,7.64-11.94,11.52-27.25,11.52-45.48v-.1c.16-29.46-1.65-76.7-6.18-89.5l-.04-.12-.04-.12c-.51-1.52-12.58-37.55-12.6-66.03-.02-3.15.39-25.59,15.48-40.85,8.58-8.68,20.14-13.27,33.44-13.27,2.34,0,14.63.44,26.99,9.07,5.06,3.54,10.57,8.77,15.07,16.43,1.71-4.4,3.95-8.3,6.71-11.67,7.08-8.64,17.09-13.29,28.94-13.45h.27s.27,0,.27,0c6.32.1,16,2.96,24.26,10.69,11.89,11.13,17.93,28.85,17.95,52.66.03,2.65.04,29.15-8.93,64.69-2.47,10.61-8.74,40.73-8.74,55.29v.24c0,1.38.38,25.32,14.02,49.98,18.17,32.87,51.09,52.24,97.87,57.59.2,0,.47,0,.8,0,5.62,0,34.53-1.07,55.23-21.97,6.42-7.64,67.04-79.15,105.82-103.45l.23-.14.23-.14c.26-.15,27.5-16.27,54.16-41.18,23.07-21.56,50.56-54.33,50.63-88.12-.03-1.33-.8-28.85-14.8-55.41Z"/>
    <g>
      <path class="st0" d="M1419.14,1091.64c-7.94-15.07-18.65-27-31.83-35.47-16.71-10.74-37.87-16.2-62.89-16.23-2.33.07-46.03,1.69-101.62,23.8l-.17.07-.17.06c-5.39,2.02-52.98,19.52-82.81,19.93l.03.02s-75.36,4.3-103.92-80.68c0,0,53.55-46.72,134.8-35.11l-.3.1c8.4,1.04,17.89,2.82,26.56,5.89l.4.14h.03c1.7.59,21.58,7.04,63.49,7.04.44,0,43.07-.2,84.56-16.48,23.2-9.1,41.52-21.41,54.44-36.58,15.7-18.43,23.71-41.73,23.79-69.24v-.53s.01-.17.01-.17c.02-1.35,0-18.28-10-40.13-6.07-13.25-14.59-25.76-25.35-37.17-13.64-14.48-30.96-27.28-51.47-38.05l-.24-.13-.24-.14c-.71-.4-17.49-9.93-36.02-24.96-25.87-20.98-42.29-42.09-48.83-62.74-.81-1.98-6.29-14.48-19.41-26.7-18.81-17.52-44.11-26.5-75.2-26.67-1.65.04-29.89.92-57.17,15.84-35.73,19.53-53.86,54.12-53.88,102.78.04,2.87,1.03,66.7,9.17,103.34,1.14,4.61,6.08,25.27,6.12,36.53,0,.85.02,5.01-.34,10.8,1.46,104.53-49.8,95.49-49.8,95.49-42.33-47.01-37.35-119.8-37.35-119.8h.44c-.1-11.94-.66-40.28-3.56-72.62-4.92-54.9-14.18-96.23-26.8-119.52l-.03-.06-.03-.06c-.1-.19-11.24-20.93-28.43-41.16-14.35-16.89-35.94-37.03-57.3-37.03h-.17c-.85.01-12.07.31-27.39,6.19-20.94,8.04-39.45,22.26-55.02,42.29-1.28,1.92-4.88,7.15-10.76,14.3-18.1,22-40.06,40.43-65.27,54.76-19.48,11.08-67.55,39.62-93.29,65.55-10.98,11.26-39.43,47.08-39.43,77.48v.51c0,.87.05,9.09,3.17,20.23,4.26,15.24,11.99,28.63,22.97,39.8,10.88,11.06,24.98,19.84,41.91,26.08,21.12,7.79,46.87,11.74,76.56,11.74,1.92-.02,44.32-.54,70.7-5.88,3.16-.68,44.23-9.4,80.04-9.4h.71c.15.02.42.03.8.06,17.76-.06,79.81,4.36,106.56,66.91,0,0-47.12,46.17-126.78,46.98-.73.01-1.46.02-2.18.02h-.37s-.01,0-.02,0c-.1,0-.2,0-.3,0h.02c-3.88-.09-39.89-.89-61.59-2.81h-.15s-.15-.03-.15-.03c-.59-.06-59.32-6.16-102.42-6.18-1.82.04-42.83,1.36-74.81,26.65-3.4,3.2-35.09,34.11-35.09,73.3v.51c0,1.11.17,11.84,5.35,26.07,7.17,19.71,20.18,36.71,38.65,50.55,2.27,1.61,20.44,14.56,41.19,31.67,30.09,24.8,50.2,45.64,59.77,61.92l.45.77.37.81c.19.41,20.65,43.8,59.23,75.04l.12.1h.02c1.17.95,33.83,26.85,74.12,26.85.2,0,20.68-.22,40.25-10.47,10.65-5.58,19.07-13.12,25.02-22.43,7.64-11.94,11.52-27.25,11.52-45.48v-.1c.16-29.46-1.65-76.7-6.18-89.5l-.04-.12-.04-.12c-.51-1.52-12.58-37.55-12.6-66.03,0-.86.02-3.14.37-6.31-8.12-54.35,82.35-149.24,88.75-130.89l33.15,21.86,36.58,81.3c6.97,10.86,10.5,25.48,10.52,43.67.03,2.65.04,29.15-8.93,64.69-2.47,10.61-8.74,40.73-8.74,55.29v.24c0,1.38.38,25.32,14.02,49.98,18.17,32.87,51.09,52.24,97.87,57.59.2,0,.47,0,.8,0,5.62,0,34.53-1.07,55.23-21.97,6.42-7.64,67.04-79.15,105.82-103.45l.23-.14.23-.14c.26-.15,27.5-16.27,54.16-41.18,23.07-21.56,50.56-54.33,50.63-88.12-.03-1.33-.8-28.85-14.8-55.41Z"/>
      <path d="M1324.21,1021.94s-47.01.79-108.07,25.07c0,0-50.21,18.8-77.55,18.8,0,0-37.74,0-37.74-39.17,0,0,.8-41.93,46.19-41.93,0,0,.27,0,.79,0,4.38,0,26.11.31,42.98,6.28,0,0,21.3,8.21,69.92,8.21h.02c2.05,0,180.36-.4,180.77-140.26,0,0,3.59-79.54-96.45-132.04,0,0-63.85-36.05-76.7-77.97,0,0-23.31-65.04-111.7-65.43,0,0-128.96.78-128.96,136.74,0,0,.8,67.76,9.64,107.34,0,0,5.64,22.72,5.64,32.52,0,0,.78,55.24-22.89,55.24,0,0-.02,0-.05,0-1.32,0-28.09-.76-28.09-62.68,0,0,1.2-144.57-32.54-206.88,0,0-46.61-87.74-101.62-87.74,0,0-.04,0-.12,0-2.8,0-54.5.75-97.11,56,0,0-3.4,5.31-10.01,13.33-16.8,20.42-37.29,37.48-60.27,50.55-23.54,13.39-70.58,41.71-97.22,68.56,0,0-44.61,45.43-44.61,90.11,0,0-3.63,116.37,162.7,116.37,0,0,45.39-.38,74.31-6.26,0,0,41.38-9.02,76.34-9.02,0,0,40.17,1.58,40.17,34.48,0,0,0,43.48-61.07,43.48,0,0-38.55-.79-60.67-2.74,0,0-59.84-6.28-104.44-6.28,0,0-48.18.39-86.38,30.97,0,0-41.37,36.81-41.37,86.98,0,0-1.62,52.11,51.41,91.68,0,0,75.53,53.28,96.03,88.15,0,0,21.69,47.02,64.25,81.49,0,0,37.37,30.96,85.58,30.96h.02c1.49,0,94.77-.38,94.77-96.38,0,0,.42-74.06-7.21-95.6,0,0-11.65-34.48-11.65-60.34,0,0-.42-36.05,30.92-36.05,0,0,33.36,0,33.36,46.62,0,0,2,86.2-22.11,150.07l-10.85,34.86c-8.03,26.28-24.91,50.55-24.91,50.55-7.62,10.18-6.83,16.83-6.83,16.83,0,14.15,26.85,14.51,29.52,14.51.14,0,.21,0,.21,0h27.74s.21,0,.59,0c4.39,0,31.95-.33,31.95-8.63,0,0,.8-8.22-4.82-19.2,0,0-16.09-29.36,2.39-146.94,0,0,7.24-49.73.82-92.45,0,0-8.44-45.44,20.88-45.84,0,0,24.49.4,24.49,45.46,0,0,.4,25.46-8.42,60.33,0,0-9.25,39.59-9.25,59.55,0,0-1.62,111.29,128.57,125.78,0,0,.75.04,2.12.04,8.81,0,43.2-1.76,68.57-27.86,0,0,63.88-76.39,102.03-100.3,0,0,113.69-66.59,113.69-144.96,0,0-.79-124.98-127.73-124.98ZM1383.31,1235.16c-26.66,24.91-53.9,41.03-54.16,41.18l-.23.14-.23.14c-38.78,24.3-99.39,95.81-105.82,103.45-20.7,20.9-49.61,21.97-55.23,21.97-.33,0-.6,0-.8,0-46.78-5.35-79.71-24.73-97.87-57.59-13.63-24.66-14.01-48.61-14.02-49.98v-.02s0-.22,0-.22c0-14.56,6.27-44.69,8.74-55.29,8.98-35.53,8.96-62.04,8.93-64.69-.01-18.19-3.55-32.81-10.52-43.67l-36.58-81.3-33.15-21.86c-6.4-18.35-96.87,76.54-88.75,130.89-.34,3.17-.37,5.46-.37,6.31.02,28.48,12.09,64.5,12.6,66.03l.04.12.04.12c4.53,12.8,6.34,60.04,6.18,89.5v.05s0,.05,0,.05c0,18.24-3.88,33.54-11.52,45.48-5.95,9.3-14.37,16.85-25.02,22.43-19.57,10.25-40.05,10.47-40.25,10.47-40.28,0-72.95-25.9-74.12-26.83h-.02s-.12-.11-.12-.11c-38.58-31.24-59.04-74.63-59.23-75.04l-.37-.81-.45-.77c-9.57-16.28-29.68-37.11-59.77-61.92-20.75-17.1-38.91-30.06-41.19-31.67-18.48-13.83-31.48-30.84-38.65-50.55-5.18-14.23-5.35-24.96-5.35-26.07v-.08s0-.43,0-.43c0-39.19,31.69-70.1,35.09-73.3,31.98-25.29,72.98-26.6,74.81-26.65,43.1.01,101.83,6.12,102.42,6.18l.15.02h.15c21.7,1.93,57.71,2.73,61.59,2.81h-.02c.1,0,.2,0,.3,0,0,0,.01,0,.02,0h.18s.18,0,.18,0c.72,0,1.45,0,2.18-.02,79.66-.81,126.78-46.98,126.78-46.98-26.75-62.55-88.8-66.97-106.56-66.91-.38-.02-.65-.04-.8-.04h-.35s-.35-.01-.35-.01c-35.81,0-76.88,8.72-80.04,9.4-26.38,5.34-68.78,5.86-70.7,5.88-29.69,0-55.45-3.96-76.56-11.74-16.93-6.24-31.03-15.02-41.91-26.08-10.98-11.17-18.71-24.56-22.97-39.8-3.12-11.14-3.18-19.37-3.18-20.23v-.1s0-.41,0-.41c0-30.4,28.45-66.22,39.43-77.48,25.75-25.92,73.81-54.47,93.29-65.55,25.22-14.34,47.18-32.76,65.27-54.76,5.88-7.15,9.48-12.37,10.76-14.3,15.57-20.02,34.08-34.25,55.02-42.29,15.32-5.88,26.54-6.17,27.39-6.19h.17c21.36,0,42.95,20.14,57.3,37.03,17.18,20.22,28.32,40.96,28.43,41.16l.03.06.03.06c12.61,23.29,21.88,64.62,26.8,119.52,2.9,32.35,3.46,60.69,3.56,72.62h-.44s-4.99,72.79,37.35,119.8c0,0,51.26,9.04,49.8-95.49.36-5.79.35-9.95.34-10.8-.03-11.26-4.98-31.92-6.12-36.53-8.14-36.64-9.13-100.47-9.17-103.34.03-48.67,18.16-83.25,53.88-102.78,27.28-14.92,55.52-15.8,57.17-15.84,31.08.17,56.38,9.14,75.2,26.67,13.12,12.22,18.6,24.73,19.41,26.7,6.54,20.65,22.96,41.76,48.83,62.74,18.53,15.03,35.32,24.56,36.02,24.96l.24.14.24.13c20.52,10.77,37.83,23.57,51.47,38.05,10.75,11.41,19.28,23.92,25.35,37.17,10,21.85,10.02,38.78,10,40.13v.17s-.01.53-.01.53c-.08,27.51-8.09,50.81-23.79,69.24-12.92,15.17-31.24,27.48-54.44,36.58-41.49,16.28-84.12,16.48-84.56,16.48-41.91,0-61.79-6.45-63.49-7.03h-.03s-.4-.15-.4-.15c-8.67-3.07-18.15-4.85-26.56-5.89l.3-.1c-81.25-11.61-134.8,35.11-134.8,35.11,28.57,84.98,103.92,80.68,103.92,80.68l-.03-.02c29.82-.41,77.42-17.91,82.81-19.93l.17-.06.17-.07c55.59-22.11,99.29-23.73,101.62-23.8,25.02.03,46.18,5.49,62.89,16.23,13.18,8.47,23.89,20.4,31.83,35.47,14,26.56,14.77,54.08,14.8,55.41-.07,33.79-27.56,66.56-50.63,88.12Z"/>
    </g>
    <path class="st1" d="M1186.14,1229.35c-5.05-4.75-10.02-9.73-14.91-14.89,96.51-51.68,251.67-79.99,251.67-79.99-134.68-2.52-238.92,49.82-265.61,64.61-4.98-5.78-9.85-11.72-14.63-17.76,33.23-17.87,144.01-73.65,262.88-91.06,0,0-161.33,6.76-274.32,76.16-6.68-9-13.1-18.12-19.24-27.24,26.54-14.61,99.84-52.16,180.36-69.31-50.12,8.72-127.56,25.46-190.8,53.39-40.18-62.68-65.79-120.12-65.79-120.12,45.14-24.94,82.29-48.3,112.88-70.05,31.21,10.01,107.05,31.24,179.78,27.92,0,0-114.17-20.56-153.99-47.05,4.25-3.3,8.31-6.55,12.25-9.76,30.4,7.93,133.49,32.1,208.5,16.75,0,0-130.02-12.27-182.08-39.69,3.33-3.1,6.47-6.14,9.51-9.14,29.5,6.18,121.89,22.61,192.03,3.1,0,0-124.39-10.13-172.2-24.24,5.28-6.14,9.93-12.04,14.06-17.73,26.16,2.49,104.75,8.29,157.84-5.76,0,0-107.21-8.15-144.37-15.28,2.3-4.17,4.29-8.19,6.01-12.05,16.18,1.33,77.88,5.43,121.36-5.25,0,0-84.52-3.58-115.35-11.19,2.2-7.76,3.23-14.7,3.5-20.78,10.91-.33,31.67-1.36,50.82-4.6,0,0-26.44-2.58-42.73-4.94-5.03-.73-9.86-2.61-13.9-5.7-3.08-2.36-5.68-5.3-7.57-8.69-6.63-11.88-12.77-28.63-12.92-33.24,0,0,.78,35.16,11.95,52.54-3.42,6.5-11.98,19.86-16.54,26.32-6.56-16.22-23.88-64.46-21.89-117.69,0,0-6.87,99.25,9.96,133.08-3.23,3.87-6.61,7.73-10.15,11.56-6.6-16.45-33.01-87.94-35.62-183.98,0,0-8,132.93,22.57,197.47-4.17,4.07-8.51,8.09-12.93,12.08-6.54-18.1-41.65-119.41-39.7-200.92-1.22,35.14-2.87,149.54,23.22,215.17-8.29,6.89-16.81,13.62-25.47,20.14-4.73-21.79-31.93-152.73-21.87-236.83-6.61,44.57-19.51,158.01,3.03,250.56-4.55,3.22-9.08,6.37-13.61,9.45-6.38-23.04-36.78-139.7-29.92-247.37,0,0-25.18,155.32,11.75,259.47-55.27,35.88-103.09,59.51-103.09,59.51-23.29-40.24-45.55-73.74-66.68-101.93,9.67-42.44,9.56-116.82,9.56-116.82-5.82,49.29-20.49,80.34-27.84,93.34-4.48-5.49-8.89-10.74-13.25-15.74,18.64-77.55,3.81-179.7,3.81-179.7,4.91,69.08-12.89,141.07-18.91,162.97-3.58-3.79-7.09-7.34-10.58-10.81,14.08-97.7-8.31-183.69-8.31-183.69,12.84,56.27.02,146.28-4.08,171.81-4.45-4.09-8.83-7.98-13.11-11.58,8.95-87.73-2.74-146.79-8.4-168.66,8.53,40.9-3.29,133.81-6.45,156.9-5.65-4.23-11.13-8.03-16.43-11.43,1.93-71.78-8.02-147.11-8.02-147.11.19,37.83-7.52,112.39-10.13,136.55-5.44-2.84-10.65-5.28-15.61-7.32-.45-56.83-14.43-102.31-14.43-102.31,5.02,32.71-1.73,82.36-3.78,96.03l-15.81-.07c-17.28-.08-34.56,1.06-51.65,3.65-62.3,9.45-85.15,31.17-85.15,31.17,53.36-18.25,110.08-20.74,141.48-20.41,1.67.99,3.33,1.91,5,2.97-120.76,14.89-178.11,85.27-178.11,85.27,64.16-52.2,164.37-65.73,199.73-68.97l16.23,13.36c-132.28,16.54-208.35,98.22-208.35,98.22,73.46-62.36,193.21-76.05,228.74-78.8,4.45,4.57,8.87,9.23,13.22,14.02-143.46,12.66-210.37,97.77-210.37,97.77,83.74-71.59,188.06-77.85,228.16-77.33,3.89,4.65,7.74,9.33,11.51,14.05-125.19,14.7-186.6,81.92-186.6,81.92,88.77-51.53,172.73-63.15,199.26-65.64,5.57,7.32,10.96,14.62,16.13,21.83-77.96,9.69-132.09,44.21-132.09,44.21,63.98-23.73,115.05-29.1,142.07-30.06,35.12,50.59,58.26,92.72,58.26,92.72-61.48,29.16-109.13,56.44-146.05,81.52-15.09-11.62-44.78-30.09-87.87-36.82,0,0,48.23,20.9,75.42,45.49-4.07,2.9-8.02,5.77-11.8,8.6-27.73-14.48-99.14-46.48-181.73-41.98,0,0,93.32,11.55,164.88,55.16-4.28,3.49-8.36,6.93-12.22,10.31-18.16-8.25-102.43-43.06-190.48-22.05,0,0,106.09,3.7,171.56,39.79-2.64,2.66-5.18,5.29-7.56,7.87-16.34-5.64-87.77-27.32-172.98-8.21,0,0,87.09-1.69,159.26,24.32-3.39,4.34-6.43,8.55-9.12,12.62-25.98-3.32-91.64-9.04-135.15,10.54,0,0,65.42-7.42,125.65,5.72-2.22,4.42-4.03,8.6-5.5,12.58-15.27-1.03-47.42-.91-84.7,12.79,0,0,33.85-4.65,64.67-1.6,9.43.93,18.38,4.9,25.16,11.52,4.59,4.48,8.1,9.96,10.16,16.03,9.45,27.73,18.12,80.79,18.12,80.79,1.43-47.57-9.89-90.7-13.49-103.08,1.94-2.74,3.91-5.5,5.94-8.28,36.03,49.83,39.7,162.26,39.7,162.26,20.82-81.12-17.39-160.17-27.19-178.54,2.64-3.25,5.23-6.32,7.75-9.11,46.33,71.9,54.88,208.38,54.88,208.38,29.01-77.74-24.97-201.13-36.65-226.23,2.9-2.57,6.47-5.61,10.75-9.08,44.12,76.77,73.07,244.51,73.07,244.51,14.78-90.44-43.69-233.96-54.28-258.93,3.39-2.47,6.98-5.05,10.86-7.75,54.38,65.46,88.98,236.53,88.98,236.53,7.53-107.35-57.1-224.13-71.34-248.4,3.58-2.33,7.29-4.71,11.2-7.16,23.95,22.72,56.23,80.78,56.23,80.78-5.82-45.09-29.02-77.4-40.14-90.63,34.17-20.42,78.89-44.12,136.51-69.52,0,0,46.96,81.04,106.33,151.82-24.74,103.41,7.66,186.45,7.66,186.45-14.88-59.77,4.47-142.75,10.43-165.68,5.45,6.01,10.97,11.86,16.54,17.5-3.57,95.04,31.13,169.44,31.13,169.44-17.2-52.09-12.18-122.85-9.49-148.91,5.46,4.82,10.94,9.35,16.4,13.55,3.52,57.38,43.06,112.9,43.06,112.9-17.27-30.68-19.5-77.78-19.66-97.07,8.46,4.89,16.83,8.77,25.02,11.4,2.95,18.72,21.26,48.96,21.26,48.96-6.74-13.17-7.25-27.27-6.36-37.28.58-6.53,3.25-12.73,7.55-17.77,2.57-3.01,5.75-5.43,9.2-7.35,40.45-22.45,104.17-37.94,104.17-37.94-67.96,3.26-116.17,24.58-131.56,31.89-6.05-3.84-12.02-8.1-17.93-12.74,55.53-39.38,201.58-69.71,201.58-69.71-133-2.96-205.9,41.62-221.6,52.45Z"/>
  </g>
</svg>