<?xml version="1.0" encoding="UTF-8" standalone="no"?>
<!-- Generator: Adobe Illustrator 23.0.1, SVG Export Plug-In . SVG Version: 6.00 Build 0)  -->

<svg
   version="1.1"
   id="Ebene_1"
   x="0px"
   y="0px"
   viewBox="0 0 570 570"
   xml:space="preserve"
   sodipodi:docname="SSC Napoli 2025 (white and azure).svg"
   inkscape:version="1.4.2 (ebf0e94, 2025-05-08)"
   inkscape:export-filename="SSC Napoli Everywhere.png"
   inkscape:export-xdpi="96"
   inkscape:export-ydpi="96"
   width="570"
   height="570"
   xmlns:inkscape="http://www.inkscape.org/namespaces/inkscape"
   xmlns:sodipodi="http://sodipodi.sourceforge.net/DTD/sodipodi-0.dtd"
   xmlns="http://www.w3.org/2000/svg"
   xmlns:svg="http://www.w3.org/2000/svg"
   xmlns:rdf="http://www.w3.org/1999/02/22-rdf-syntax-ns#"
   xmlns:cc="http://creativecommons.org/ns#"
   xmlns:dc="http://purl.org/dc/elements/1.1/"
   xmlns:ns="http://ns.adobe.com/SaveForWeb/1.0/"><defs
     id="defs37"><linearGradient
       id="SVGID_1_"
       gradientUnits="userSpaceOnUse"
       x1="91.388298"
       y1="91.387497"
       x2="474.60709"
       y2="474.60629"><stop
         offset="0"
         style="stop-color:#83A9CF"
         id="stop8" /><stop
         offset="0.1"
         style="stop-color:#5680B9"
         id="stop10" /><stop
         offset="0.25"
         style="stop-color:#124A93"
         id="stop12" /></linearGradient><linearGradient
       id="SVGID_2_"
       gradientUnits="userSpaceOnUse"
       x1="146.7674"
       y1="146.7532"
       x2="419.24249"
       y2="419.2283"><stop
         offset="0.4"
         style="stop-color:#1C8FCE"
         id="stop21" /><stop
         offset="0.6"
         style="stop-color:#44A4DB"
         id="stop23" /><stop
         offset="1"
         style="stop-color:#69B9E5"
         id="stop25" /></linearGradient></defs><sodipodi:namedview
     pagecolor="#ffffff"
     bordercolor="#666666"
     borderopacity="1"
     objecttolerance="10"
     gridtolerance="10"
     guidetolerance="10"
     inkscape:pageopacity="0"
     inkscape:pageshadow="2"
     inkscape:window-width="1680"
     inkscape:window-height="987"
     id="namedview35"
     showgrid="false"
     inkscape:zoom="0.66"
     inkscape:cx="284.09091"
     inkscape:cy="250"
     inkscape:window-x="-8"
     inkscape:window-y="-8"
     inkscape:window-maximized="1"
     inkscape:current-layer="Ebene_1"
     inkscape:showpageshadow="0"
     inkscape:pagecheckerboard="0"
     inkscape:deskcolor="#d1d1d1" /><style
     type="text/css"
     id="style2">
	.st0{fill:#124A93;}
	.st1{fill:url(#SVGID_1_);}
	.st2{fill:#FFFFFF;}
	.st3{fill:#1C8FCE;}
	.st4{fill:url(#SVGID_2_);}
</style><metadata
     id="metadata4"><ns:sfw><ns:slices /><ns:sliceSourceBounds
         bottomLeftOrigin="true"
         height="566"
         width="566"
         x="0"
         y="0" /></ns:sfw><rdf:RDF><cc:Work
         rdf:about=""><dc:format>image/svg+xml</dc:format><dc:type
           rdf:resource="http://purl.org/dc/dcmitype/StillImage" /></cc:Work></rdf:RDF></metadata><g
     id="g2"><circle
       style="fill:none;fill-rule:evenodd;stroke:#01a7e1;stroke-width:2.00001;stroke-dasharray:none;stroke-opacity:1"
       id="circle1"
       cx="285"
       cy="285"
       r="284" /><g
       id="g1"><circle
         style="fill:#01a7e1;fill-rule:evenodd;stroke:none;stroke-width:0;stroke-dasharray:none"
         id="path1"
         cx="285"
         cy="285"
         r="283" /><g
         id="g32"
         style="fill:#ffffff;fill-opacity:0.985646"
         transform="translate(2,2)"><path
           style="fill:#ffffff;fill-opacity:0.985646"
           d="M 283,0 C 126.7,0 0,126.7 0,283 0,439.3 126.7,566 283,566 439.3,566 566,439.3 566,283 566,126.7 439.3,0 283,0 Z m 0,12 C 355.4,12 423.39961,40.200391 474.59961,91.400391 525.79961,142.60039 554,210.6 554,283 554,355.4 525.79961,423.39961 474.59961,474.59961 423.39961,525.79961 355.4,554 283,554 210.6,554 142.60078,525.79961 91.300781,474.59961 40.200781,423.39961 12,355.4 12,283 12,210.6 40.200391,142.60039 91.400391,91.400391 142.60039,40.200391 210.6,12 283,12 Z"
           id="path6" /><linearGradient
           id="linearGradient1"
           gradientUnits="userSpaceOnUse"
           x1="91.388298"
           y1="91.387497"
           x2="474.60709"
           y2="474.60629"><stop
             offset="0"
             style="stop-color:#83A9CF"
             id="stop8-1" /><stop
             offset="0.1"
             style="stop-color:#5680B9"
             id="stop10-5" /><stop
             offset="0.25"
             style="stop-color:#124A93"
             id="stop12-2" /></linearGradient><path
           d="M 283,75.199219 C 168.4,75.199219 75.199219,168.4 75.199219,283 75.199219,397.6 168.4,490.80078 283,490.80078 397.6,490.80078 490.80078,397.6 490.80078,283 490.80078,168.4 397.6,75.199219 283,75.199219 Z m 0,8 C 393.2,83.199219 482.80078,172.8 482.80078,283 482.80078,393.2 393.2,482.80078 283,482.80078 172.8,482.80078 83.199219,393.2 83.199219,283 83.199219,172.8 172.8,83.199219 283,83.199219 Z"
           id="path17"
           style="fill:#ffffff;fill-opacity:0.985646" /><linearGradient
           id="linearGradient2"
           gradientUnits="userSpaceOnUse"
           x1="146.7674"
           y1="146.7532"
           x2="419.24249"
           y2="419.2283"><stop
             offset="0.4"
             style="stop-color:#1C8FCE"
             id="stop21-7" /><stop
             offset="0.6"
             style="stop-color:#44A4DB"
             id="stop23-6" /><stop
             offset="1"
             style="stop-color:#69B9E5"
             id="stop25-1" /></linearGradient><path
           class="st2"
           d="m 164.9,164.1 h 73 l 118.8,142 c 0.8,0.9 2.2,0.4 2.2,-0.8 V 198.6 C 358.9,185 347.9,174 334.3,174 H 327 v -10 h 74 v 10 h -4.9 c -12.2,0 -22.1,9.9 -22.1,22.1 V 400 h -9.7 l -152,-181.8 c -0.4,-0.5 -1.3,-0.2 -1.3,0.5 V 359 c 0,14.4 11.7,26.1 26.1,26.1 h 5.9 v 9 h -78 v -9 h 8 c 12.2,0 22.1,-9.9 22.1,-22.1 V 197.5 L 184,184.3 179.9,179.4 C 177,176 172.8,174 168.4,174 h -3.3 v -9.9 z"
           id="path30"
           style="fill:#ffffff;fill-opacity:0.985646" /></g></g></g></svg>
